<?xml version="1.0" encoding="utf-8"?>
<!-- Generator: Adobe Illustrator 24.3.0, SVG Export Plug-In . SVG Version: 6.00 Build 0)  -->
<svg version="1.1" id="Layer_1" xmlns="http://www.w3.org/2000/svg" xmlns:xlink="http://www.w3.org/1999/xlink" x="0px" y="0px"
	 viewBox="0 0 1920 1080" style="enable-background:new 0 0 1920 1080;" xml:space="preserve">
<style type="text/css">
	.st0{clip-path:url(#SVGID_2_);}
	.st1{fill:#FFFFFF;}
	.st2{fill:#F2F0C4;stroke:#F2F0C4;stroke-miterlimit:10;}
	.st3{fill:#CABAF7;stroke:#C7B5F7;stroke-miterlimit:10;}
</style>
<g>
	<defs>
		<rect id="SVGID_1_" width="1920" height="1080"/>
	</defs>
	<clipPath id="SVGID_2_">
		<use xlink:href="#SVGID_1_"  style="overflow:visible;"/>
	</clipPath>
	<g id="Web_1920_1" class="st0">
		<rect class="st1" width="1920" height="1080"/>

			<image style="overflow:visible;enable-background:new    ;" width="2088" height="1174" id="test" xlink:href="BAC97E8055D50ABA.png"  transform="matrix(1 0 0 1 -127 -70)">
		</image>
	</g>
</g>
<polygon class="st2" points="1069.5,486.3 1073.8,498.5 1086,501.7 1076.1,509.8 1076.8,522.8 1066.4,515.6 1054.7,520.4
	1058.2,507.9 1050.2,497.9 1062.8,497.3 "/>
<polygon class="st2" points="1771.6,445 1775.9,457.2 1788.1,460.4 1778.2,468.5 1778.9,481.5 1768.5,474.3 1756.8,479.1
	1760.3,466.6 1752.3,456.6 1764.9,456 "/>
<polygon class="st3" points="1599.7,233 1607.6,239.5 1617.1,236.6 1613.8,246.2 1619.7,254.6 1609.7,254.1 1603.8,262.2
	1601,252.2 1591.4,248.8 1599.7,243.2 "/>
<polygon class="st3" points="88.7,554.6 96.6,561.1 106.1,558.2 102.8,567.8 108.6,576.3 98.6,575.7 92.8,583.8 89.9,573.9
	80.4,570.4 88.6,564.9 "/>
<polygon class="st2" points="70.8,252.5 84.3,263.1 100.6,258.1 94.7,274.1 104.5,288.1 87.4,287.4 77.1,301.1 72.5,284.6
	56.3,279.1 70.6,269.6 "/>
<polygon class="st3" points="210.4,117.2 218.8,124.1 228.8,121.1 225.3,131.2 231.5,140.1 221,139.5 214.8,148.1 211.8,137.6
	201.7,133.9 210.4,128 "/>
<polygon class="st2" points="915.3,84.1 919.7,95.2 931.9,98.2 922.1,105.4 923,117.2 912.5,110.6 900.9,114.9 904.2,103.5
	896.2,94.4 908.7,94 "/>
<polygon class="st3" points="637.3,247.6 645.3,254.1 654.8,251.2 651.4,260.8 657.3,269.2 647.3,268.7 641.4,276.8 638.6,266.8
	629.1,263.4 637.3,257.8 "/>
<polygon class="st2" points="1780.2,85.1 1787.4,100.8 1806.8,105.2 1791.4,115.2 1793,131.8 1776.2,122.3 1757.8,128.1
	1762.9,112.2 1749.9,99.2 1769.8,98.9 "/>
<polygon class="st3" points="1627.9,694 1635.9,700.5 1645.4,697.7 1642,707.2 1647.9,715.7 1637.9,715.1 1632,723.2 1629.2,713.3
	1619.7,709.8 1627.9,704.3 "/>
</svg>
