<?xml version="1.0" encoding="utf-8"?>
<!-- Generator: Adobe Illustrator 24.3.0, SVG Export Plug-In . SVG Version: 6.00 Build 0)  -->
<svg version="1.1" id="Layer_1" xmlns="http://www.w3.org/2000/svg" xmlns:xlink="http://www.w3.org/1999/xlink" x="0px" y="0px"
	 viewBox="0 0 1921.2 1384.6" style="enable-background:new 0 0 1921.2 1384.6;" xml:space="preserve">
<style type="text/css">
	.st0{fill:#F0F8FF;stroke:#F0F8FF;stroke-width:0.25;stroke-miterlimit:10;}
	.st1{fill:#917176;}
	.st2{fill:#F2EA8B;}
	.st3{fill:#E5D6DD;}
	.st4{fill:#E5A8C6;}
	.st5{fill:#F2F0C4;}
	.st6{fill:#DCCAED;}
	.st7{fill:#E8BCBC;}
</style>
<rect x="0.1" y="280.1" class="st0" width="1921" height="1081"/>
<g>
	<g>
		<path class="st1" d="M1405.7,656.9c-12.4-15.7-29.5-26.9-48.7-32.1c-22.9-6.1-47.2-3.2-70.6-7c-3.4-0.6-7.5-1.9-8.1-5.4
			c-0.5-2.9,1.9-5.5,4.1-7.4c11.7-10.6,24.8-21.7,40.5-22.3c9-0.3,17.7,2.9,26.5,4.7c8.8,1.8,18.8,1.9,25.9-3.7
			c8.7-7,9.4-20.6,4.9-30.8s-13.1-18-21-25.8s-15.8-16.6-18.3-27.5c-3.3-14.5,4.8-30.7,18.3-36.8c5.9-2.6,12.4-3.5,18.8-3.5
			c46.4-0.7,85.8,34,90.8,80.2c0.4,3.7,0.6,7.6,2.8,10.7c3,4.4,8.9,5.6,14,7.1c23.6,7.1,40.8,28.5,48.9,51.8s8.3,48.5,7.7,73.2
			c-0.6,21.9-2.3,45.2-15.3,63c-3.4,4.6-7.7,8.8-13.1,10.5c-5.4,1.7-12.2,0.1-15.1-4.8c-1.8-3-2-6.6-2.1-10.1l-0.8-24.3
			c-6,5.2-17.2,0.8-18.1-7.1c-10.1,3.2-20.4-3.9-28.4-11c-15.4-13.5-29.8-28-43.2-43.4"/>
		<path class="st1" d="M1406.7,655.9c-8.5-10.7-19.2-19.4-31.3-25.6c-13.4-6.8-27.8-9.6-42.7-10.7c-8-0.6-16-0.8-24.1-1.2
			c-7.7-0.4-15.7-0.6-23.2-2.3c-2.3-0.5-5.8-1.6-5.8-4.5c0-3.1,3.8-5.6,5.9-7.5c5.2-4.8,10.8-9.2,16.7-13c5.8-3.6,12.3-6.3,19.2-6.9
			c7.9-0.6,15.6,1.7,23.2,3.6c12.1,2.9,27.5,4.3,35.6-7.4c7-10.2,4.4-24.1-1.8-33.9c-7.6-12-19.6-20.2-28.2-31.5
			c-4.1-5.3-7.5-11.6-8.4-18.4c-0.7-5.9,0.3-12,2.9-17.4c2.5-5.4,6.4-9.9,11.4-13.2c6.2-4,13.6-5.2,20.8-5.4
			c28.7-0.7,55.9,12.5,73.2,35.4c8.1,10.9,13.6,23.6,16.2,36.9c0.6,3.4,0.9,6.8,1.4,10.2s1.3,6.4,3.6,8.9c4.2,4.7,11.1,5.5,16.8,7.5
			c24.7,8.9,40.6,33.1,47.3,57.5c4.2,15.2,5.3,31.1,5.5,46.9c0.1,14.8,0,29.8-2.1,44.4c-1.9,13.6-6,27.7-15,38.3
			c-4,4.7-9.6,8.9-16.2,8.1c-2.8-0.3-5.5-1.7-7.2-3.9c-2.1-2.8-2.2-6.6-2.3-10c-0.3-8.1-0.6-16.2-0.8-24.3c0-0.8-0.7-1.5-1.6-1.5
			c-0.4,0-0.7,0.2-1,0.4c-5.1,4.2-14.7,0.6-15.6-6.1c0-0.8-0.7-1.5-1.5-1.5c-0.1,0-0.2,0-0.4,0c-11.5,3.5-22-6.1-29.9-13.2
			c-9.1-8.1-17.8-16.5-26.2-25.3c-4.8-5.1-9.5-10.2-14.1-15.5c-1.3-1.5-3.4,0.7-2.1,2.1c8.4,9.7,17.3,19.1,26.5,28.1
			c4.6,4.5,9.3,8.9,14.1,13.2c4.4,3.9,9,7.9,14.2,10.7c5.6,3,11.9,4.7,18.2,2.8l-1.9-1.5c1.2,9.3,13.4,14.2,20.7,8.2l-2.6-1.1
			c0.3,8.5,0.5,17.1,0.9,25.6c0.2,3.5,0.6,7.3,2.7,10.3c1.7,2.3,4.1,4,6.9,4.8c13.8,4.2,24.3-10.5,29.4-21.2
			c6.2-12.9,8.2-27.3,9.1-41.5c1.1-15.9,1.1-31.8,0.1-47.7c-1.1-15.4-3.9-30.8-10-45.1c-5-12-12.6-22.8-22.2-31.6
			c-4.8-4.4-10.3-8-16.1-10.9c-2.9-1.4-5.9-2.5-8.9-3.5c-3.1-0.9-6.3-1.6-9.2-3.2c-3-1.6-5.1-4.4-5.7-7.8c-0.8-3.5-0.8-7-1.4-10.5
			c-1.1-6.9-3.1-13.6-5.7-20c-14-33.8-46.8-56.1-83.4-56.6c-7.6-0.1-15.4,0.7-22.4,3.9c-11.1,5.1-18.4,16.8-19.3,28.8
			c-1.1,14.4,8.1,26.2,17.7,35.9c9.5,9.6,21.7,19.5,24.5,33.6c1.2,5.8,0.7,12.2-2.2,17.5c-3.3,5.8-9.3,8.8-15.8,9.4
			c-7.6,0.7-14.9-1.3-22.1-3.1c-7.5-1.9-15.2-3.4-22.9-2c-14,2.4-25.5,12.3-35.7,21.6c-2.3,2.1-5,4.5-5.3,7.8
			c-0.2,2.9,1.6,5.2,4.1,6.5c2.9,1.5,6.2,1.8,9.4,2.2c4.1,0.5,8.2,0.9,12.3,1.2c16.6,1.1,33.4,0.6,49.7,4.2
			c20.7,4.5,39.3,16.1,52.4,32.8C1405.8,659.5,1407.9,657.4,1406.7,655.9L1406.7,655.9z"/>
	</g>
	<g>
		<path class="st2" d="M1394.8,781c-1.7,1.5-4.4,0.9-5.9-0.8c-1.4-1.8-2.1-3.9-2-6.2c-0.2-6,1.7-11.9,5.5-16.6
			c6.4-7.7,16.7-10.8,26.3-13.4c7.7-2.1,15.7-4.2,23.6-3.5c7.8,0.8,15,4.2,21.7,8.2c3.8,2.2,7.6,4.7,10.3,8.2s4,8.3,2.5,12.5
			c-1.3,3.4-4.3,5.9-7.4,7.7c-11.4,6.9-25.2,8.2-38.5,7.5s-26.4-3.4-39.6-3.8"/>
		<path class="st2" d="M1393.7,779.9c-1,0.8-2.5,0.3-3.4-0.4c-1.2-1.1-1.9-2.7-2-4.3c-0.4-3.3,0-6.6,1.2-9.8c2.2-6.3,7-10.9,12.7-14
			c5.7-3.1,12-4.7,18.2-6.4c7.5-2,15.3-4,23.2-2.8c7.2,1.1,13.8,4.4,20,8c5.5,3.3,12,7.8,12.3,14.9s-7,11-12.6,13.5
			c-6.5,2.7-13.4,4.2-20.4,4.6c-17.3,1.1-34.4-3.2-51.7-3.8c-1.9-0.1-1.9,2.9,0,3c17.1,0.7,33.9,4.8,51,3.9c7.8-0.3,15.4-2,22.6-5
			c6.3-2.8,13.7-7.2,14.1-14.9c0.4-7.7-5.6-13.6-11.7-17.4c-6.6-4.2-13.9-8-21.7-9.4c-8.6-1.6-17.1,0.3-25.4,2.5
			c-6.8,1.8-13.8,3.7-20.1,7.2c-6.2,3.5-11.3,8.9-13.5,15.9c-1.8,5.5-2.9,17,5,18.2c1.5,0.2,3.1-0.2,4.3-1.2
			C1397.3,780.9,1395.2,778.8,1393.7,779.9L1393.7,779.9z"/>
	</g>
	<g>
		<path class="st3" d="M1391.4,809.8c4.7,7.9,9.8,15.6,15.3,22.9c1.7,2.4,3.7,4.6,5.9,6.6c8.9,7.2,22.6,5.4,32-1.2
			c9.4-6.6,15.5-16.8,21.3-26.7c1.5-2.6,3.1-5.3,3.4-8.4s-0.9-6.4-3.6-7.7c-2.4-1.1-5.1-0.4-7.7,0.2c-14.1,3-28.8-0.2-43.2-0.5
			c-5.5-0.1-11.2,0.2-16,3s-8.2,8.4-6.8,13.7"/>
		<path class="st3" d="M1390.7,810.1c4.1,6.9,8.5,13.6,13.2,20.1c4,5.6,8.1,11,14.9,13.3c5.8,1.7,12.1,1.6,17.8-0.5
			c6.1-2.2,11.5-5.8,15.8-10.6c4.6-5.1,8.6-10.7,11.9-16.7c3.1-5.1,8.1-11.8,4.9-18c-1.4-2.6-4.3-4.1-7.2-3.7
			c-1.9,0.2-3.7,0.7-5.5,1c-2.1,0.4-4.1,0.6-6.2,0.8c-8.1,0.6-16.2-0.3-24.3-0.9c-7.3-0.6-15.2-1.5-22.4,0.4
			c-5.9,1.6-11.5,6-12.4,12.4c-0.2,1.4-0.1,2.8,0.2,4.2c0.1,0.4,0.5,0.6,0.9,0.5c0.4-0.1,0.6-0.5,0.5-0.9l0,0
			c-1.6-6.3,3.5-12,9.1-14.1c6.5-2.4,13.9-1.7,20.6-1.2c7.4,0.5,14.8,1.4,22.2,1.4c3.6,0,7.1-0.2,10.7-0.8c3.2-0.5,7.5-2.3,10.5-0.4
			c2.6,1.6,3.1,5.1,2.5,7.8c-0.7,3.3-2.7,6.2-4.4,9c-3.1,5.6-6.7,10.9-10.7,15.8c-3.8,4.8-8.7,8.7-14.2,11.4
			c-5.3,2.5-11.2,3.3-17,2.4c-3.1-0.6-6.1-1.8-8.6-3.7c-3.2-2.4-5.6-5.8-7.9-9.1c-4.9-6.6-9.4-13.5-13.6-20.6
			c-0.2-0.4-0.7-0.5-1-0.3C1390.6,809.3,1390.5,809.8,1390.7,810.1L1390.7,810.1z"/>
	</g>
	<g>
		<path class="st4" d="M1312.8,902.3c4.1,10,16,14.3,26.8,15.6c23.6,2.6,47.2-3.6,66.4-17.6c-1-1.4-3-1.4-4.7-1.8
			c-3.2-0.8-5.6-3.4-7.7-5.8c-6.9-7.8-14.9-16.1-25.3-16.8c-6.6-0.5-13.1,2.3-19.6,1.2c-3.6-0.6-7-2.4-10.7-2.3
			c-5.7,0.1-10.2,4.7-13.4,9.5s-5.7,10.1-10.2,13.5c-1.2,0.7-2.2,1.6-2.9,2.7c-0.6,1.2-0.3,3,1,3.3"/>
		<path class="st4" d="M1312.1,902.7c4.9,11.6,18.8,15.2,30.2,16.2c14.5,1.2,29.1-0.9,42.7-6.2c7.6-3,14.8-6.9,21.4-11.7
			c0.4-0.2,0.5-0.7,0.2-1c0,0-0.1-0.1-0.1-0.1c-1.1-1.4-2.8-1.6-4.5-1.9c-2.1-0.5-4-1.6-5.4-3.1c-2.9-2.8-5.4-6-8.3-8.9
			c-5.5-5.4-12.1-10.3-20-10.8c-4.7-0.3-9.3,0.9-13.9,1.3c-2.4,0.2-4.8,0-7.2-0.5c-2.2-0.6-4.3-1.4-6.6-1.8
			c-8.3-1.4-14,5.3-17.9,11.6c-2.4,3.8-4.6,8-8.2,10.9c-1.5,1.2-3.5,2.2-4,4.2c-0.4,1.5,0.4,3,1.8,3.6c0.9,0.3,1.3-1.1,0.4-1.4
			c-0.9-0.3-0.9-1.5-0.6-2.3c0.5-0.8,1.2-1.5,2.1-2c1.4-1,2.7-2.2,3.9-3.5c2.3-2.9,4.3-5.9,6.1-9c1.8-3.3,4.3-6.1,7.3-8.4
			c3.4-2.4,7-2.7,11-1.6c2,0.6,4,1.2,6,1.6c2,0.3,4.1,0.4,6.1,0.2c4.3-0.4,8.5-1.5,12.8-1.4c7.7,0.2,14.1,4.9,19.4,10
			c3,2.9,5.5,6.1,8.4,9c1.3,1.4,3,2.6,4.8,3.3c1.7,0.7,4.2,0.4,5.4,2l0.2-1.2c-11.4,8.3-24.5,13.9-38.3,16.5c-6.9,1.3-14,1.8-21,1.5
			c-6.3-0.1-12.6-1.2-18.5-3.3c-6.1-2.3-11.7-6.2-14.3-12.4C1313.1,901.1,1311.8,901.9,1312.1,902.7L1312.1,902.7z"/>
	</g>
	<g>
		<path class="st5" d="M1101.9,1366.2c-5.2,1.6-10.9-2.3-13.3-7.2s-2.6-10.6-2.9-16.1c-2.1-31.2-13.7-60.9-21-91.4
			c-7-28.9-10.3-58.6-13.6-88.1c-1.2-11.4-2.4-23.2,1.4-34c4.5-12.5,15.4-21.9,27.5-27.5s25.4-7.8,38.5-10.1l28.6-4.8
			c4.7-0.8,9.6-1.6,14.3-0.6c9.3,1.9,15.8,10.1,21.5,17.7l32.9,44.3c5.4,7.2,10.8,14.5,15.1,22.4c9.3,16.8,13.6,36.3,24.5,52.1
			c10,14.5,24.9,25.1,34.3,40c16.9,26.5,13.3,60.6,9.1,91.7c-0.7,4.8-1.4,10-4.4,13.8c-2.5,3.3-6.3,5.3-10.1,6.9
			c-12.1,5.2-25.3,7.4-38.4,8.3c-14.2,1-28.6,0.5-42.8,0.1l-65.9-2.2c-7-0.2-14-0.5-20.6-2.7s-12.8-6.7-15.3-13.1"/>
		<path class="st5" d="M1101.8,1365.8c-7.3,2-12.8-5-14.4-11.2c-0.8-3.7-1.2-7.4-1.3-11.1c-0.2-3.7-0.6-7.3-1.1-11
			c-1.9-14.9-5.7-29.5-9.8-43.9c-4.2-14.8-8.6-29.4-11.9-44.4c-3.4-15.5-5.9-31.2-7.9-47c-1-7.8-1.9-15.5-2.8-23.3
			s-1.9-15.3-2.2-22.9c-0.3-7.5,0.1-15.1,2.8-22.2c2.4-6,6.1-11.3,10.8-15.6c10.3-9.7,23.8-14.6,37.4-17.6c7.4-1.7,15-2.8,22.5-4.1
			c8-1.3,15.9-2.7,23.9-4c3.9-0.7,7.9-1.3,11.9-0.8c3.4,0.4,6.6,1.7,9.4,3.6c5.4,3.6,9.5,8.9,13.3,14c9.6,12.9,19.2,25.8,28.8,38.7
			c4.6,6.2,9.3,12.3,13.6,18.7c4,6,7.6,12.4,10.5,19c5.7,12.7,9.8,26.2,17,38.2c7,11.6,17,20.6,26.2,30.5c4.7,4.9,8.8,10.2,12.3,16
			c3.3,5.8,5.9,12,7.6,18.4c3.5,12.9,4,26.5,3.2,39.8c-0.4,6.8-1,13.6-1.8,20.3c-0.4,3.6-0.9,7.1-1.4,10.6c-0.3,3.3-1,6.5-2.1,9.6
			c-2.8,7.2-10,10.2-16.8,12.7c-7.1,2.5-14.4,4.2-21.8,5.3c-15.8,2.3-31.8,2-47.7,1.6c-16.1-0.5-32.2-1.1-48.3-1.6l-24-0.8
			c-7.5-0.2-15.3-0.4-22.4-3.2c-5.9-2.3-11.4-6.4-13.8-12.4c-0.2-0.4-0.9-0.2-0.7,0.2c5.5,13.2,21,15.5,33.6,16
			c16.8,0.7,33.5,1.1,50.2,1.7c16.6,0.6,33.2,1.5,49.8,1.1c15.5-0.4,31.2-1.9,45.9-7.3c6.1-2.2,12.8-5,16-11.1
			c1.4-3,2.3-6.2,2.6-9.5c0.5-3.3,0.9-6.6,1.3-9.8c1.8-13.9,3.1-28,2.2-42c-0.8-13.1-3.6-26.3-9.9-37.9
			c-6.7-12.3-17.1-21.6-26.5-31.7c-5-5.2-9.4-10.9-13.2-17c-3.6-6.4-6.8-13-9.5-19.9c-2.6-6.5-5.1-13.1-8.1-19.5
			c-3.2-7-7-13.6-11.4-19.9c-9.3-13.4-19.3-26.2-29-39.3c-4.7-6.4-9.3-12.8-14.2-19.1c-3.8-4.9-8.1-9.7-13.7-12.6
			c-6.6-3.3-13.6-2.4-20.6-1.2l-25.1,4.3c-14.9,2.5-30.2,4.8-43.8,11.7c-11,5.6-20.9,14.4-25.3,26.2c-2.6,7.1-3,14.7-2.7,22.2
			c0.4,8,1.5,15.9,2.4,23.8c1.8,16.2,3.8,32.3,6.5,48.3c2.7,15.7,6.3,31.3,10.7,46.6c4.3,15.2,8.9,30.3,12.2,45.7
			c1.7,7.8,2.9,15.7,3.7,23.7c0.6,6.8,0.1,14.5,3.7,20.6c2.6,4.6,7.9,8.1,13.3,6.6c0.2-0.1,0.3-0.3,0.3-0.5
			S1102,1365.7,1101.8,1365.8L1101.8,1365.8L1101.8,1365.8z"/>
	</g>
	<g>
		<path class="st6" d="M1263,1116.5c-6,8.2-10.6,17.5-13.6,27.3c-1.7,5.6-2.8,11.3-4.9,16.8c-2.6,6.8-6.6,13.2-6.9,20.4
			c-0.2,4.5,1.2,9,2.8,13.2c3.4,8.9,8.5,17.5,16.2,23.1c7.7,5.6,18.5,7.6,26.9,3.3c7.3-3.8,11.6-11.4,15.6-18.6
			c5.1-9.3,10.2-18.7,12.6-29c1.5-6.3,1.9-12.9,4-19.1c1.6-4.4,4-8.5,5.4-12.9c1.3-4.5,2-9.1,2.2-13.8c0.6-9.7,0.4-19.7-2.6-28.9
			s-9.3-17.8-18.2-21.7s-20.6-2-26.6,5.7c-2.6,3.3-3.9,7.4-5.3,11.3c-2.5,7.6-5.1,15.1-7.6,22.7"/>
		<path class="st6" d="M1262.7,1116.3c-3.8,5.3-7.1,10.9-9.7,16.9c-2.5,6-4.5,12.2-6,18.5c-0.8,3.3-1.8,6.5-3,9.6
			c-1.2,3-2.6,5.9-3.8,8.8c-1.2,2.8-2.1,5.7-2.6,8.7c-0.4,3.2-0.2,6.5,0.7,9.7c1.5,5.8,3.9,11.3,7,16.4c2.8,4.9,6.7,9.2,11.2,12.7
			c8.8,6.4,21.5,8.1,30.5,1.2c4.3-3.2,7.4-7.7,10-12.3c3.2-5.5,6.3-11.1,9-16.8c2.9-5.8,5-11.9,6.4-18.2c1.3-6.6,1.9-13.3,4.5-19.6
			c1.3-3.1,2.8-6,4-9.1c1.1-3.1,1.9-6.3,2.3-9.6c0.8-6.6,1-13.3,0.6-20c-0.7-11.5-4.1-23.3-12.7-31.4c-7.3-7-18.1-9.8-27.6-5.8
			c-4.8,2.1-8.6,5.9-10.7,10.8c-1.2,2.9-2.3,5.9-3.3,9l-3.4,10.3l-3.3,9.9c-0.2,0.5,0.6,0.7,0.7,0.2l6.6-19.6
			c1.9-5.6,3.5-11.9,8-16.2c7.4-7.2,19.6-7.1,28-1.8c9.6,6,14.6,16.9,16.3,27.7c0.9,6.4,1.1,12.9,0.7,19.4
			c-0.3,6.7-1.1,13.1-3.8,19.2c-1.2,2.8-2.6,5.5-3.7,8.4c-1,3-1.8,6.1-2.3,9.2c-1.1,6.2-2.1,12.3-4.3,18.3c-2.3,6-5,11.7-8.2,17.3
			c-2.6,4.8-5.2,9.8-8.5,14.1s-7.7,8.1-13.2,9.5c-5.4,1.3-11.1,0.8-16.2-1.5c-10.7-4.4-17.4-14.8-21.6-25.1
			c-2.4-6-4.2-12.3-2.6-18.8c1.4-5.9,4.6-11.2,6.7-16.8c2.2-6.1,3.3-12.5,5.4-18.6c2-5.9,4.6-11.5,7.7-16.8c1.5-2.5,3.1-5,4.9-7.4
			C1263.7,1116.3,1263,1115.9,1262.7,1116.3L1262.7,1116.3z"/>
	</g>
	<g>
		<path class="st7" d="M1364.2,1362c-9.9-21.4-17.4-45.3-12.5-68.3c4.2-19.4,16.8-35.8,29.3-51.3c9-11.1,18.2-22.1,29.6-30.7
			c10.1-7.7,21.5-13.3,33.1-18.5c10.9-4.9,22.2-9.4,34.1-10.7c11.9-1.3,24.6,1,33.9,8.4c8.9,7.1,13.8,18.3,15.6,29.5
			c1.8,11.2,0.9,22.7,0,34.1l-1.6,18.8c-0.4,5.5-0.9,11.2-2.9,16.3c-2.4,6.1-6.7,11.2-9.6,17c-8.9,17.7-4.5,41.1-17.4,56.2
			c-9.6,11.3-25.8,14.1-40.7,15.1c-18.2,1.2-36.5,0.8-54.7-1.3c-13.2-1.5-27.6-4.5-36-14.8"/>
		<path class="st7" d="M1364.9,1361.6c-8.6-18.6-15.6-39.1-13.6-59.9c1.9-20,13.2-37.1,25.3-52.5c12.5-15.9,25.6-31.9,43-42.7
			c8.8-5.3,18-9.9,27.5-13.9c9.7-4.2,19.8-8,30.3-9.2c9.2-1.1,18.9-0.1,27.2,4s14.3,11.2,18,19.6c4.1,9.4,5.2,19.7,5,29.8
			c-0.2,11-1.4,22.1-2.3,33.1c-0.4,5.4-0.7,10.8-2.1,16.1c-1.3,5-4,9.3-6.7,13.6c-2.5,3.8-4.6,7.8-6.2,12c-1.4,4-2.4,8.1-3.1,12.3
			c-1.5,8.3-2.3,16.8-4.8,24.9s-7,15.2-14.3,19.9s-16,6.7-24.5,7.8c-10.2,1.1-20.5,1.6-30.7,1.4c-11.1-0.1-22.2-0.7-33.2-2
			c-8.6-1-17.5-2.6-25.2-6.7c-3.7-1.9-6.9-4.6-9.6-7.7c-0.6-0.7-1.7,0.3-1.1,1.1c5.6,6.7,13.7,10.4,22,12.5c9.8,2.5,20,3.2,30,3.8
			c11.5,0.7,23,0.8,34.5,0.2c9.1-0.4,18.4-1.2,27.2-3.9c8.1-2.5,15.5-7,20.5-13.9s6.9-15.5,8.3-23.9c1.4-8.6,2.4-17.4,5.4-25.6
			c1.7-4.6,4.3-8.7,6.9-12.8c2.9-4.2,5-8.9,6.2-13.8c1.2-5.3,1.4-10.8,1.9-16.1c0.5-5.7,1-11.5,1.4-17.2c0.9-11.1,1.6-22.3-0.6-33.3
			c-1.8-8.9-5.5-17.7-11.7-24.4c-6.2-6.7-15.1-10.7-24.2-12c-9.9-1.4-19.9,0.2-29.4,3.1c-10.2,3.2-20,7.7-29.5,12.3
			c-9.4,4.5-18.3,10.1-26.4,16.7c-8,6.8-15,14.7-21.8,22.7c-12.6,15.2-26,31.2-32,50.5c-6.4,20.2-2.4,41.6,4.9,61
			c1.8,4.8,3.8,9.4,6,14c0.4,0.9,1.7,0.1,1.3-0.8L1364.9,1361.6z"/>
	</g>
	<g>
		<path d="M1062.3,1355.2l-10.6-129c-1.8-21.5-3.6-43-5.3-64.5c-1.4-16.6-2.5-33.6,0.1-50.1c2.5-16.1,9-31.6,21.8-42.3
			c13.4-11.2,31-15.8,47.7-19.5c20.6-4.5,41.3-8.5,62.1-11.8c9.9-1.6,19.8-2.9,29.7-4.4c9.1-1.4,18.3-3.1,26.9-6.4
			c16-6.1,27.7-18.2,34.6-33.7c7.8-17.5,9-36.8,8.6-55.7c-0.1-5.1-0.3-10.2-0.6-15.3c-0.1-1.4-2.3-1.4-2.2,0
			c0.9,20.1,1.8,40.9-4.2,60.4c-5.1,16.7-15.3,31.8-31.2,39.8c-8.3,4.1-17.4,6.3-26.4,7.9c-9.7,1.7-19.5,2.9-29.2,4.4
			c-21.1,3.3-42,7.1-62.8,11.5c-16.7,3.6-34,7.4-48.5,16.8c-13.5,8.8-22.3,22.3-26.5,37.8c-4.2,15.8-4.2,32.5-3.2,48.8
			c1.2,20.4,3.2,40.7,4.9,61l10.6,128.5l1.3,15.9C1060.2,1356.6,1062.4,1356.6,1062.3,1355.2L1062.3,1355.2z"/>
		<path d="M1440.2,927.7c-1,31.4,4.9,65.4,24.9,90.6c4.8,6,10.4,11.3,16.6,15.8c7.9,5.6,16.7,9.7,25.7,13.1
			c20.2,7.9,40.8,14.8,61.2,22.1c18.1,6.5,36.6,12.4,54.2,20.2c14.8,6.5,29.4,14.8,39.9,27.3c12.4,14.7,15.8,33.5,14.8,52.2
			c-0.6,9.9-1.8,19.7-3.7,29.4c-1.7,10.2-3.7,20.2-5.9,30.3c-8.9,40.2-21.8,79.5-38.4,117.2c-2.1,4.7-4.2,9.3-6.3,13.9
			c-0.6,1.3,1.3,2.4,1.9,1.1c17.5-37.2,31.3-76.1,41.3-116c5.1-19.9,9-40.1,11.9-60.4c2.5-18.5,3.1-38.2-5.1-55.5
			c-14.4-30.5-49.8-42.4-79.2-52.9l-63-22.6c-18.6-6.7-38.6-12.5-53.8-25.7c-24.9-21.6-33.9-56.2-34.8-88c-0.1-4-0.1-8,0-12
			c-0.1-0.6-0.6-1.1-1.2-1C1440.7,926.8,1440.3,927.2,1440.2,927.7L1440.2,927.7z"/>
		<path d="M1477.2,715.2c10.7,25,15,52.3,14.4,79.4c-0.3,13.7-1.7,27.3-4.2,40.7c-2.5,13.4-5.7,26.8-10.6,39.6
			c-4.8,12.5-11.8,24.1-20.8,34.1c-8.4,9.5-18.2,17.7-28.3,25.3c-10.1,7.7-20.6,15.6-31.4,22.4c-10.8,6.8-23.1,12.7-36.3,13.4
			c-25.6,1.4-47.5-15.6-65.7-31.5c-9.8-8.6-19.8-17.3-28.4-27.2c-8.7-9.9-15.5-21.4-19.9-33.9c-4.3-12.3-6.8-25.2-8.6-38.1
			c-2-14.2-3.6-28.4-5.2-42.6c-1.7-14.6-3.8-29.3-4-44c-0.2-7.3,0.8-14.5,2.9-21.5c2.1-6.6,5.4-12.7,8-19.1
			c10.4-25.5,9.4-53.7,16.2-80.1c3.2-12.4,8.1-24.7,16.5-34.5c7.5-8.7,17.7-15.5,29-17.8c5.6-1.2,11.4-1,16.9,0.4
			c0.6,0.1,1.2-0.3,1.3-0.9c0.1-0.5-0.2-1.1-0.7-1.3c-11.2-2.9-22.9-0.4-32.8,5.3c-10.6,6.1-18.7,15.4-24.3,26.2
			c-12.7,24.8-12.3,53.3-17.8,80.1c-1.4,7.1-3.4,14-6,20.7c-2.6,6.6-6,13-8.3,19.8c-4.8,14.1-3.2,29.1-1.7,43.6
			c1.6,15.4,3.4,30.8,5.2,46.2c1.6,13.5,3.2,27,6.1,40.2c2.8,12.9,7.1,25.7,13.8,37.1c6.9,11.7,16.5,21.6,26.4,30.7
			c9.6,8.9,19.3,17.7,29.8,25.5c10,7.4,21.1,14,33.3,17.2c12.3,3.1,25.2,2.3,37-2.4c12.4-4.8,23.4-12.6,34.1-20.3
			c20.8-15.1,42.5-30.8,56.2-53c7.4-12,12.1-25.5,15.6-39.1c3.5-13.4,6-27.1,7.4-40.9c2.8-27.5,1.2-55.7-6.8-82.3
			c-1.9-6.3-4.1-12.5-6.7-18.5C1478.6,712.8,1476.6,713.9,1477.2,715.2L1477.2,715.2z"/>
		<path d="M1492.5,828.9c15.1-12.7,19.2-33.4,19.3-52.2c0-6.3-0.3-12.6-0.6-18.9c-0.1-1.4-2.3-1.4-2.2,0c1,19.6,1.9,40.7-8.5,58.1
			c-2.5,4.3-5.8,8.1-9.6,11.3C1489.8,828.2,1491.4,829.8,1492.5,828.9L1492.5,828.9z"/>
		<path d="M1234.8,820.8c-4.3-0.2-7.3-4.6-9.6-7.8c-2.5-3.5-4.6-7.1-6.3-11c-3.5-7.8-5.5-16.3-5.8-24.8c-0.2-4.9,0.2-9.8,1.1-14.5
			c0.3-1.4-1.9-2-2.2-0.6c-3.5,18.2,0.5,37.1,11.2,52.3c2.8,3.9,6.2,8.5,11.4,8.8C1236.3,823.1,1236.2,820.8,1234.8,820.8
			L1234.8,820.8z"/>
		<path d="M1317.7,568.1c-7.8-2.4-13.9-8.1-18.7-14.5c-2.4-3.3-4.7-6.7-6.8-10.2c-2.4-3.9-4.7-7.9-6.7-12.1c-2.2-4.3-3.4-9-3.5-13.8
			c0-3.7,1-7.3,2.8-10.6c3.6-6.4,9.8-10.8,16.2-14c3.5-1.7,7.1-3.1,10.8-4.2c3.4-1,7-2.2,10.6-1.8c1.7,0.1,3.3,1,4.2,2.4
			c1.1,2,0.2,4.3-0.9,6.2s-2.5,3.5-3.7,5.3c-1.1,1.6-2.1,3.3-3,5.1c-6.5,13.5-4.7,32.5,9.5,40.3c6,3.3,13,4.2,19.7,2.5
			c3.2-0.8,6.2-2.5,8.7-4.7c2.6-2.4,5.4-6.1,3.5-9.7c-1.7-3.2-5.8-4.1-9-4.5c-4.8-0.5-9.6-0.7-14.4-0.4c-9.9,0.5-19.6,2.3-29.4,3.4
			c-9.6,1.1-19.5,1.7-29-0.5c-4.1-0.9-8.2-2.5-11.4-5.2c-3.2-2.8-5-6.8-5.1-11c-0.4-9.3,5.6-16.9,12.3-22.7
			c7-6.1,14.6-11.5,22.7-16.2c15.8-9.2,33.8-15.1,52.2-14c8.9,0.5,17.6,2.8,25.6,6.7c7,3.5,14.2,8.6,16.4,16.6
			c0.9,3.3,0.4,6.6-2.2,9l1.8,0.2c-2.9-4-5-8.6-7.9-12.7c-2.4-3.4-5.2-6.4-8.5-9.1c-6.5-5.3-14.3-8.8-22.6-10.2
			c-7.9-1.3-17.2-1-24.2,3.3c-3.2,2-5.9,5-6.4,8.8c-0.5,3.4,0.5,6.8,2.9,9.2c2.9,2.8,6.9,2.6,10.3,0.8c2-1.2,4-2.6,5.8-4.1
			c1.9-1.4,3.9-2.8,5.9-4c8.1-5.2,16.9-9.1,26.2-11.5c17.4-4.5,35.9-2.9,51.6,6.2c13.9,8.1,25.2,22.1,27.3,38.4
			c1.9,15-3.8,31-15.1,41.1c-6.6,5.7-14.9,9.1-23.6,9.6c-9.5,0.8-19.1-1-27.6-5.3c-7.9-4.1-14.2-10.9-16.4-19.7
			c-2.2-8.4-0.2-17.3,6.3-23.2c6.3-5.7,15.3-8.1,23.7-7.9c4.2,0,8.3,1.1,12,3.1c3.7,2.2,6.3,5.9,7.3,10.1c1.9,8.3-1,17.7-5,25
			c-4,7.3-9.9,13.4-16.9,17.8c-3.4,2.1-7.1,3.8-10.9,5c-0.6,0.2-0.9,0.9-0.7,1.5c0.2,0.5,0.7,0.8,1.3,0.7
			c16.4-5.2,29-18.3,33.6-34.9c2.2-8.2,2.4-18.5-4.3-24.8c-6.2-5.8-15.7-6.5-23.8-5.3c-8.3,1.3-16.7,5.2-21.6,12.3
			c-4.9,7.1-5.1,16.7-2,24.7c7.1,18,29,24.9,46.9,22.9c8.6-0.9,16.8-4.4,23.3-10.1c5.7-5.2,10.1-11.7,12.8-18.9
			c5.9-15.1,3.9-32.2-5.4-45.5c-9.4-13.9-24.8-23.5-41.2-26.4c-19.1-3.5-39,1.5-55.5,11.2c-4.2,2.5-8.2,5.3-12.1,8.3
			c-3.2,2.4-7.9,4.6-10.9,0.8c-2.1-2.8-2.4-6.6-0.7-9.6c2.2-3.8,6.6-5.8,10.7-6.8c16.8-4.1,35.9,3.7,45.8,17.7
			c2.9,4.1,5,8.7,7.9,12.7c0.3,0.5,1,0.7,1.6,0.4c0.1,0,0.1-0.1,0.2-0.1c5.9-5.4,2.8-13.9-1.5-19.3c-2.6-3.2-5.8-5.8-9.4-7.8
			c-3.9-2.3-7.9-4.1-12.2-5.6c-17.6-5.9-36.9-4.2-54,2.4c-8.9,3.4-17.4,7.9-25.2,13.2c-4,2.6-7.8,5.5-11.5,8.4
			c-3.7,2.8-7.1,6-10.1,9.5c-5.5,6.7-8.9,16-5.5,24.4c3.4,8.4,12.4,11.5,20.6,12.8c20.2,3.1,40.1-3.6,60.2-3.7c2.5,0,5,0.1,7.4,0.3
			c2,0.1,4.1,0.5,6,1.2c1.6,0.6,3.3,1.8,3.4,3.6c0.2,2.2-1.7,4.2-3.2,5.7c-5.1,4.8-12.7,6-19.4,4.5c-7.2-1.5-13.3-6.5-16.3-13.2
			c-3.4-7.6-2.9-16.5,0.1-24.1c0.8-2,1.7-3.9,2.9-5.7c1.1-1.8,2.5-3.5,3.7-5.2c2.3-3.2,4.2-7.7,1.3-11.2c-2.3-2.8-6.4-2.9-9.7-2.4
			c-3.8,0.6-7.4,1.7-11,3.1c-13.8,5.1-28.9,15.5-27.3,32.2c0.9,9.4,6.3,17.9,11.2,25.7c4.3,7,9.1,14,15.7,19.1
			c3.1,2.4,6.6,4.2,10.3,5.3c0.6,0.2,1.2-0.2,1.4-0.8C1318.7,568.9,1318.3,568.2,1317.7,568.1L1317.7,568.1z"/>
		<path d="M1279.5,658c-10.5-16.5-3.2-38.1,7.5-52.5c12-16.1,29.6-26.5,46.9-36.1c4.1-2.3,8.1-4.6,12.7-5.6c3.8-0.8,8.2-0.7,10.4,3
			c0.3,0.5,1,0.7,1.6,0.4c0.3-0.2,0.5-0.6,0.5-0.9c0.7-8.3,7.7-14.1,15.2-16.5c3.9-1.2,8.1-1.5,12.2-0.9c4.5,0.8,8.7,2.7,12.4,5.5
			c8.2,6,13.7,15.3,17.3,24.6c4.4,11.4,7.1,23.3,8.1,35.5c0.6,6.9,0.6,13.8,0,20.7c-0.6,5.7-2,11.8-6.4,15.8c-0.8,0.7,0,2.3,1.1,1.9
			c10.7-4.1,19-13,22.3-24l-2.1,0.3c3.5,4.6-0.4,10.6-3.4,14.4c-3.3,4.1-6.8,8.6-5.9,14.2c0.1,0.4,0.4,0.7,0.8,0.8
			c7.2,1.2,12.7-3.9,16.1-9.7c4.1-7,5.5-15.6,6-23.6c1.1-16.8-3.9-34-16.2-45.8c-6.1-6-13.8-10.1-22.2-11.9c-1.4-0.3-2,1.9-0.6,2.2
			c14.1,2.8,25.7,13.2,31.7,26c3.5,7.7,5.3,16,5.2,24.4c0,4.3-0.3,8.5-1,12.7c-0.6,3.8-1.5,7.4-2.9,11c-2.5,6.1-7.8,13.8-15.5,12.6
			l0.8,0.8c-0.9-5.8,4.4-10.4,7.4-14.7c2.8-4.1,5.1-10,1.7-14.4c-0.3-0.5-1.1-0.7-1.6-0.3c-0.2,0.1-0.4,0.4-0.5,0.6
			c-3.1,10.3-10.7,18.5-20.7,22.4l1.1,1.9c4-3.8,5.9-9.1,6.7-14.4c0.8-6.3,1.1-12.7,0.7-19c-0.5-13.2-3.1-26.2-7.6-38.6
			c-3.7-9.9-9-19.8-17.2-26.6c-3.8-3.3-8.4-5.7-13.3-6.9c-4.3-0.9-8.8-0.9-13.1,0.2c-9.3,2.2-17.8,9.1-18.7,19.1l2.1-0.6
			c-4.3-7.3-14.4-4.3-20.4-1.3c-4.7,2.3-9.3,5.1-13.9,7.7s-9.3,5.5-13.8,8.6c-16.4,11.1-31.5,26.2-36.7,45.9
			c-2.9,10.8-2.6,23,3.5,32.6C1278.3,660.4,1280.3,659.3,1279.5,658L1279.5,658z"/>
		<path d="M1278.8,656.1c-3.8,0-6.8-4.7-5.4-8.2c0.9-2.3,3.4-3.7,4.6-5.9s1.2-5.1,0.9-7.7c-0.6-5-0.8-10.1-0.6-15.2
			c1.3-18,9.6-34.7,23.2-46.5c2.1-1.8,4.4-3.7,7.3-3.9c2.5-0.2,5.2,0.4,7.6-0.7c2.4-1.1,3.3-3.4,5.1-5.2c3.6-3.7,9.7-4,14.5-3.7
			c5,0.4,9.9,1.8,14.4,4.2c9.2,4.9,15.7,13.6,17.8,23.8c1.1,5.2,1,10.5-0.2,15.6c-1.4,5.4-3.9,10.4-7.2,14.8
			c-3.4,4.6-7.1,9-11.1,13.1c-3.8,4.3-8.4,7.8-13.5,10.5c-5.3,2.4-10.9,4-16.7,4.8c-5.3,1-10.6,1.6-15.9,1.9c-4.8,0.2-10-0.3-14.1-3
			c-4.4-2.8-6.6-7.7-7.8-12.6c-0.6-2.4-1-4.8-1.4-7.2c-0.2-1.4-2.4-0.8-2.2,0.6c0.8,5.2,1.8,10.7,4.6,15.3c2.7,4.4,7.1,7.4,12.1,8.5
			c5.3,1.2,10.8,0.7,16.1,0c6-0.7,11.9-1.7,17.8-3.2c5.8-1.5,11.3-4.2,16-7.9c4.8-3.8,8.8-8.4,12.7-13s7.7-9.4,10.3-14.9
			c7.2-15.4,3.3-33.6-9.6-44.7c-8.1-6.8-19.3-10.5-29.8-8.6c-2.6,0.4-5.1,1.4-7.2,3c-1,0.8-1.9,1.8-2.6,2.8c-0.9,1.2-1.7,2.5-3.2,3
			c-2.6,1-5.6,0-8.2,0.6c-2.7,0.6-5.1,2.6-7.2,4.4c-16.4,14.5-25.1,35.7-23.8,57.6c0.2,2.8,0.8,5.6,0.7,8.4c0,1.4-0.3,2.8-0.9,4
			c-0.9,1.2-1.9,2.4-3,3.5c-2.8,3.4-2.5,8.3,0.6,11.3c1.4,1.5,3.4,2.3,5.4,2.4c0.6-0.1,1.1-0.6,1-1.2
			C1279.9,656.5,1279.4,656.1,1278.8,656.1L1278.8,656.1z"/>
		<path d="M1310.3,577.6l4.1-11c0.2-0.6-0.2-1.2-0.8-1.4c-0.6-0.1-1.2,0.2-1.4,0.8l-4.1,11c-0.2,0.6,0.2,1.2,0.8,1.4
			C1309.5,578.5,1310.1,578.1,1310.3,577.6z"/>
		<path d="M1326.7,644.5c-10.4-15.4-22.2-33.8-15.8-53.2c1.5-4.6,4.2-8.8,7.8-12c1.1-1-0.5-2.5-1.6-1.6c-6.8,6-9.9,14.9-10.2,23.7
			c-0.3,10.1,3.3,19.8,8,28.5c3,5.4,6.4,10.5,9.8,15.6C1325.5,646.8,1327.5,645.7,1326.7,644.5L1326.7,644.5z"/>
		<path d="M1383.5,643.2c7.8-12.2,13.3-26.2,14.1-40.8c0.8-12.6-2.8-25.2-10.3-35.4c-3.5-4.8-7.9-8.8-13-11.9
			c-5.4-3.2-12.2-5.8-18.6-5c-11.7,1.4-16.2,13.7-17.9,23.7c-1,6.6-1.7,13.3-2,19.9c-0.6,7.8-0.5,15.6,0.3,23.3
			c0.4,3.8,1.2,7.6,2.2,11.2c1,3.6,2.4,7.2,3.2,10.9c0.7,3.3,0.7,6.7-0.2,9.9c-0.8,2.7-2,5.3-3.5,7.6c-3,5.1-6.6,9.9-8.7,15.4
			c-1,2.7-1.9,5.9-1.4,8.8c0.5,2.8,2.6,5,5.3,5.7c3.1,1,6.5,0.8,9.7,0.9l11.9,0.4l24.9,0.9c7.9,0.3,15.9,0.4,23.8,0.9
			c6.2,0.4,12.9,1.4,17.4,6c3.9,4,5.2,9.6,6,14.9c0.9,5.5,1.3,11.2,3.4,16.4c0.9,2.4,2.3,4.6,4,6.5c1,1.1,2.6-0.5,1.6-1.6
			c-3.6-4-4.9-9.3-5.7-14.5s-1.3-10.7-3.1-15.8c-1.8-5.2-5.6-9.3-10.6-11.5c-5.8-2.5-12.2-2.6-18.3-2.9l-47.8-1.7
			c-3.9-0.1-7.8-0.2-11.8-0.4c-2.5-0.1-5.7-0.3-7.5-2.4c-2-2.3-0.9-6.2-0.1-8.8c0.9-2.7,2.2-5.2,3.7-7.7c2.9-4.8,6.3-9.4,8.3-14.8
			c1-2.7,1.5-5.5,1.5-8.4c-0.2-3.5-0.9-7-2.1-10.4c-2.3-7.1-3.7-14.4-4.2-21.9c-0.3-7.5-0.1-15,0.6-22.5c0.5-6.1,0.9-12.2,2.3-18.1
			c1.2-4.9,2.9-10,6.5-13.7c8.9-9.4,23.9-2.4,31.9,4.8c8.7,8,14.3,18.8,15.7,30.5c1.8,14.1-1.9,28.3-8.2,40.9
			c-1.6,3.1-3.3,6.2-5.2,9.2C1380.8,643.4,1382.7,644.5,1383.5,643.2L1383.5,643.2z"/>
		<path d="M1526.1,905.6c4.1-3,8.4-6.2,10.9-10.8c2.1-3.8,2.6-8.9,0.3-12.8c-5.2-8.6-17.2-3.8-25.1-6.1c-2.1-0.5-3.9-1.6-5.2-3.3
			c-1.7-2.3-1.6-5.4-1.2-8.1c0.7-4.8,3.2-9.2,7-12.3c3.7-2.8,8.5-3.7,12.9-2.2c5.1,1.7,7.7,6,8.1,11.2c0.7,10.2-3.1,22.1-12.9,26.7
			c-4.4,2.1-9.9,2.4-14.3,0.1c-4.2-2.2-6.8-6.4-8.2-10.9c-2.7-9.1-0.4-19,2.9-27.6c3.4-9,8.3-17.4,12.2-26.2
			c3.8-8.4,6.8-17.4,6.3-26.8c-0.5-9.9-4.8-19.2-11.9-26.1c-1.7-1.6-3.6-3.1-5.5-4.4c-0.8-0.5-1.6,0.8-0.8,1.3
			c8.9,6,14.8,15.4,16.4,26c1.4,10-1.7,19.8-5.7,28.9s-9,17.8-12.6,27.1c-3.4,8.8-5.6,18.9-2.8,28.2c1.2,4.4,3.8,8.2,7.4,10.9
			c4,2.7,9,3.4,13.7,2.1c10.3-2.6,15.9-12.5,17.1-22.5c0.6-5.1,0.7-11.1-2.7-15.3c-2.8-3.3-7-5.1-11.3-5
			c-9.8,0.2-16.4,9.7-16.9,18.8c-0.2,2.5,0.4,5,1.9,7.1c1.3,1.6,3,2.7,5,3.4c4.4,1.6,9,1,13.5,1c5,0,10.9,1.2,12.5,6.7
			c1.5,5.3-1.3,10.5-5,14.1c-2.1,1.9-4.2,3.7-6.5,5.3C1524.7,904.9,1525.5,906.2,1526.1,905.6L1526.1,905.6z"/>
		<path d="M1194.4,906.1c7.9,3.8,17,1.4,23.7-3.7c7.9-6,11.7-15.5,13.2-25.1c0.8-6,1.3-12,1.3-18.1c0-0.4-0.3-0.7-0.8-0.8
			c-8.7-0.8-19.2-1.7-25.3-8.9c-4.7-5.5-6.5-16.1,1.4-19.7c5.9-2.7,13.5,0.7,16.9,5.8c4.7,7.1,0.8,16.4-4.6,21.9
			c-5.9,5.9-14.8,9.2-23.1,7.6c-4.3-0.7-8-3.1-10.4-6.7c-2-3.3-2.9-7.2-2.5-11c1.3-19,21.1-27.6,30.8-41.7c5.1-7.4,7.9-16.2,9.5-25
			c1.6-9.2,2.8-18.4,3.5-27.8c0.9-9.7,1.2-19.6-0.6-29.2c-1.6-8.7-5.1-16.9-10.3-24.1c-9.3-13.2-22.7-24.1-28.1-39.7
			c-6.2-17.8,0.7-37.5,12.3-51.5c6.2-7.3,13.4-13.8,21.4-19.3c7.7-5.5,15.8-10.5,24.1-15.1c15.8-8.6,34.7-16.5,53-13
			c4.4,0.9,8.6,2.4,12.5,4.6c0.8,0.5,1.6-0.8,0.8-1.3c-17.2-9.6-37.4-5.3-54.5,2.2c-9.2,4.2-18.1,9.1-26.6,14.6
			c-8.6,5.3-16.7,11.3-24.1,18.1c-13.7,13-24.3,31.3-22.4,50.9c1.8,18.2,15.2,30.9,26,44.3c6,7.4,11.1,15.4,13.5,24.7
			c2.8,10.4,2.6,21.3,1.8,31.9c-0.7,10.4-2,20.7-3.9,30.9c-2.1,9.9-5.7,19.5-12.4,27.2c-6.5,7.4-14.7,13-20.8,20.8
			c-4.9,6.2-8,14.7-6.7,22.7c1.4,8.2,8.1,13.5,16.2,14.2c8.6,0.6,17-2.7,22.9-9.1c5.2-5.6,8.7-14.3,4.9-21.7
			c-3.1-5.7-9.3-9.1-15.8-8.7c-7.1,0.7-11.1,7.3-10,14.1c1.4,8.8,8.8,14.1,16.9,16.3c4.5,1.1,9.1,1.8,13.8,2.1l-0.8-0.8
			c-0.2,9.6-0.6,19.6-4.2,28.7c-3.3,8.2-9.6,15.1-18.3,17.7c-4.5,1.4-9.3,1.1-13.6-0.8C1194.2,904.3,1193.5,905.6,1194.4,906.1
			L1194.4,906.1z"/>
		<path d="M1297.5,558.3c-9.3,6.8-20.2,10.9-31.7,11.8c-10.9,0.8-22.4-2.7-33.1,0.6c-10.3,3.2-16.5,13.3-21.1,22.5
			c-2.7,5-4.4,10.5-5.2,16.1c-0.5,5.7,0.4,11.5,2.5,16.9c2,5.3,4.5,10.4,7,15.5c2.3,5,5,9.9,7.8,14.6c2.8,4.6,6.1,8.9,9.9,12.7
			c3.3,3.3,7.7,7.3,12.8,6.7c4.4-0.5,6.8-4.6,6.9-8.8c0.1-5.2-3.2-9.6-5.3-14.1c-3.7-8.1-4.2-17.4-1.3-25.9c1.4-4,3.8-7.7,6.9-10.6
			c4-3.7,9.2-5.2,13.8-7.8c9.1-5,15.6-13.4,21.3-21.9c1.4-2.1,2.8-4.2,4.1-6.4c0.5-0.8-0.8-1.6-1.3-0.8c-5.4,8.5-11,17.2-18.8,23.7
			c-2,1.6-4.1,3.1-6.3,4.3c-2.5,1.3-5.1,2.4-7.7,3.7c-3.8,1.9-7.1,4.7-9.6,8.2c-4.8,6.6-6.4,15.3-5.5,23.3c0.5,4,1.6,8,3.4,11.6
			c2.2,4.5,5.7,9.2,4.7,14.5c-0.3,2.3-1.8,4.2-3.9,5.1c-2.5,0.9-5.3-0.1-7.4-1.4c-4.5-2.7-8.2-7.2-11.3-11.3
			c-6.3-8.5-10.8-18.2-15.2-27.8c-2.4-5.2-4.7-10.6-5.6-16.3c-0.7-5.7,0-11.6,2.2-17c2-5.2,4.6-10.2,7.7-14.9
			c2.8-4.3,6.2-8.5,10.8-11.1c9.8-5.6,21.7-2.3,32.4-2.3c10.6,0,21-2.7,30.3-7.8c2.4-1.3,4.7-2.8,6.8-4.4
			C1299.1,559.1,1298.3,557.8,1297.5,558.3L1297.5,558.3z"/>
		<path d="M1251.2,673.1c-0.5,13,4.9,25.2,10,36.9c0.6,1.4,1.2,2.8,1.8,4.2c0.8,1.6,1.4,3.4,1.8,5.1c0.5,3.3-2.3,5.8-4.6,7.7
			c-4.4,3.6-9.8,5.8-14.9,8c-5.2,2.2-10.6,4.3-14.5,8.4c-3.4,3.5-5.6,8.9-2,13.1c3.4,4,9.3,4,13.9,2.3c3-1.2,5.9-2.5,8.8-4.1
			c3-1.4,6.1-2.8,9.2-3.9c13.9-5.3,28.6-8,43.5-8c0.4,0,0.8-0.3,0.8-0.8s-0.3-0.8-0.8-0.8c-19.1,0-37.9,4.4-55,12.9
			c-5.1,2.5-11.1,5.9-16.8,3c-2.4-1.1-3.9-3.5-3.8-6.2c0.1-2.8,2-5.4,4-7.2c4-3.8,9.6-5.8,14.5-7.9s9.8-4.3,14-7.6
			c2-1.6,4.2-3.5,5.1-6c1-2.8-0.3-5.6-1.4-8.1c-5.6-13.1-12.5-26.5-12-41.1C1252.7,672.1,1251.2,672.1,1251.2,673.1z"/>
		<path d="M1252.8,673.7c0.3-1.4,0.1-2.9-0.3-4.3c-0.1-0.4-0.5-0.7-0.9-0.6c-0.4,0.1-0.7,0.5-0.6,0.9c0,0,0,0.1,0,0.1
			c0.1,0.3,0.2,0.6,0.3,1c0,0.1,0.1,0.3,0.1,0.4v0.1c0-0.1,0-0.1,0,0c0,0.1,0,0.1,0,0.2c0,0.3,0,0.6,0,0.9v0.5v0.2
			c0-0.2,0,0.1,0,0.2c-0.1,0.4,0,0.8,0.4,1c0.4,0.1,0.8,0,1-0.4C1252.7,673.8,1252.8,673.8,1252.8,673.7L1252.8,673.7z"/>
		<path d="M1328.2,752.3c11,5.8,15.5,20.2,10.1,31.3c-2.9,5.9-7.6,10.8-9.6,17.1c-2.1,6.4,0,12.6,3.4,18.2c1.8,3,4,5.8,5.8,8.8
			c0.5,0.7,0.9,1.4,1.2,2.2c0.4,1.1,0,2.2-0.9,2.9c-1.3,1.2-2.8,2.2-4.2,3.4c-2.9,2.4-5.6,5.1-8.2,7.9c-2.4,2.7-5.2,5.6-6.7,9
			c-1.3,2.6-0.9,5.8,1,8c1.9,2,4.5,3.1,7.3,3.3c6.8,0.6,14.4-4.8,20.8-0.4c1.4,0.9,2.3,2.3,2.5,3.9c0.3,1.8,0,3.7,0.6,5.5
			c0.9,2.5,3,4.4,5.6,5c2.5,0.7,5.1-0.2,6.6-2.2c1.4-1.9,1.8-4.4,1-6.7c-0.4-1-1.1-1.9-2-2.6c-0.8-0.6-1.5,0.7-0.8,1.3
			c2.1,1.5,2.1,4.7,0.8,6.7c-1.6,2.5-4.9,2.6-7.3,1.1c-1.2-0.8-2.1-1.9-2.6-3.2c-0.6-1.8-0.2-3.8-0.6-5.7c-0.7-2.5-2.5-4.5-4.9-5.4
			c-2.7-1-5.7-1.3-8.6-0.6c-3.7,0.6-7.4,2.1-11.1,1.8c-2.8-0.2-6-1.5-7.2-4.2c-1.6-3.6,1.5-7.3,3.6-9.9c2.3-2.8,4.8-5.5,7.4-8
			c1.3-1.2,2.6-2.4,3.9-3.5c1.3-1.1,2.9-2.1,4.1-3.4c1-0.9,1.5-2.1,1.4-3.4c-0.2-1.5-1.3-3-2.2-4.2c-1.8-2.8-3.8-5.5-5.5-8.3
			c-1.8-2.7-3-5.8-3.7-9c-0.5-3.3,0-6.6,1.3-9.6c2.5-5.8,7-10.6,9.4-16.4c4.9-11.5-0.3-26-11.3-31.8
			C1328.2,750.5,1327.4,751.8,1328.2,752.3L1328.2,752.3z"/>
		<path d="M1353.4,872.1c1.2-3,2-6.1,2.2-9.3c0.1-1-1.4-1-1.5,0c-0.2,3.1-0.9,6.1-2.1,8.9c-0.1,0.4,0.1,0.8,0.5,0.9c0,0,0,0,0,0
			C1352.9,872.7,1353.3,872.5,1353.4,872.1L1353.4,872.1z"/>
		<path d="M1350.2,835.2c-0.4-2.6-1.3-5.1-2.7-7.3c-1.2-2.1-2.7-4.2-4.9-5.3c-1.9-1-4.2-0.5-5.5,1.1c-1.4,1.8-1.5,4.2-1.3,6.4
			c0.4,2.6,0.1,5.2-0.9,7.7c-0.9,2.1-2,4-3,6c-1.6,3.5-2.2,7.8,1,10.6s8.3,2.9,11.9,0.9c0.8-0.5,0.1-1.8-0.8-1.3
			c-3,1.6-6.6,1.6-9.4-0.2c-3.2-2.2-2.8-6.2-1.4-9.3c1.4-3.2,3.6-6.2,4.1-9.8c0.3-2.2-0.2-4.5-0.2-6.7c0.1-2,1-4.6,3.4-4.5
			c2.5,0.1,4.4,3,5.6,4.9c1.3,2.2,2.2,4.6,2.6,7.2C1348.9,836.6,1350.4,836.2,1350.2,835.2L1350.2,835.2z"/>
		<path d="M1349.6,833.2v-36c0-5.9,0.1-11.7,0-17.6c-0.1-5.6-0.6-11.1-2.7-16.3c-2.2-5.5-5.5-10.5-8.8-15.4
			c-0.5-0.8-1.8-0.1-1.3,0.8c3,4.2,5.7,8.7,7.9,13.4c2.2,5.2,3.3,10.7,3.3,16.3c0.3,11.6,0,23.2,0,34.8v20c0,0.4,0.3,0.8,0.8,0.8
			S1349.5,833.6,1349.6,833.2L1349.6,833.2z"/>
		<path d="M1340.7,851.1c9.3,8.9,24.7,10,35.1,2.5c0.8-0.6,0-1.9-0.8-1.3c-9.9,7.1-24.4,6.2-33.3-2.2
			C1341.1,849.4,1340,850.5,1340.7,851.1L1340.7,851.1z"/>
		<path d="M1372.7,854.8c0,2.5,4.3,2.6,6,2.3c2.6-0.3,5-1.8,6.5-4c3.6-5.5,0.8-12.2-1.8-17.5c-0.4-0.9-1.7-0.1-1.3,0.8
			c2.2,4.4,4.4,9.4,2.6,14.3c-0.8,2.1-2.4,3.7-4.5,4.5c-1,0.4-2.1,0.5-3.1,0.5c-0.5,0-2.9-0.2-2.9-0.9c0-0.4-0.3-0.8-0.8-0.8
			S1372.7,854.5,1372.7,854.8L1372.7,854.8z"/>
		<path d="M1344.7,846.9c-0.8-5.5,4-10.6,8.7-12.7c4.9-2.1,11-1.3,14.7,2.7c3.5,3.9,4,9.6,1.3,14c-2.9,4.7-8.8,6.6-14.2,5.7
			c-5.3-1-9.5-5.1-10.6-10.4c-0.2-0.9-1.6-0.5-1.4,0.4c1.1,5.5,5.2,9.8,10.6,11.2c5.7,1.5,12.5-0.3,16.1-5.1
			c3.5-4.6,3.6-11,0.1-15.7c-3.6-4.9-10.1-6.6-15.8-4.8c-6.2,2-12.1,8.2-11.2,15C1343.4,848.2,1344.8,847.8,1344.7,846.9
			L1344.7,846.9z"/>
		<path d="M1228.3,771.5c-11.1-3.8-18.7-13.5-23.6-23.8c-2.6-6-4.9-12.1-6.6-18.4c-1.7-5.6-3.4-11.2-4.7-17c-2.5-11-4-22.9-0.3-33.7
			c0.9-2.6,2.1-5.2,3.6-7.5c1.5-2.4,3.5-4.6,4.8-7.2c1.3-2.8,1.4-5.7,1.6-8.7c0.1-2.8,0.7-5.6,1.7-8.2c1.9-5,5.4-9.2,9.8-12.2
			c2.3-1.5,4.8-2.6,7.5-3.3c3.1-0.8,6.3-1.3,9.3-2.3c10.9-3.7,18.4-13.5,25.2-22.3c3.7-4.6,7-9.7,9.8-15c1.4-2.7,2.5-5.6,3.3-8.5
			c0.6-2.3,1.3-5.1-0.7-6.9c-3.3-3-8.7-0.2-11.9,1.5c-4.8,2.5-9.4,5.5-13.5,9.1c-17.8,15.3-26.1,38.9-21.9,62c0.5,3,1.3,6,2.2,8.9
			c0.3,0.9,1.8,0.5,1.4-0.4c-3.8-11.8-4.2-24.4-1.2-36.3c2.8-11,8.4-21,16.3-29.1c5.6-5.8,12.1-10.5,19.4-13.9
			c2-0.9,4.4-1.9,6.7-1.3c3.4,0.8,2,4.9,1.2,7.2c-0.9,2.9-2.2,5.8-3.6,8.5c-2.9,5.2-6.3,10.2-10.1,14.8c-3.5,4.6-7.3,8.9-11.4,12.9
			c-4.2,4-9.4,6.8-15.1,8.2c-3,0.6-6,1.3-8.9,2.3c-2.3,0.9-4.5,2.1-6.5,3.6c-3.9,3-7,7-8.8,11.5c-0.9,2.3-1.5,4.6-1.8,7.1
			c-0.3,3.2-0.1,6.5-1.3,9.5c-1.1,2.8-3.2,5-4.8,7.4c-1.4,2.2-2.6,4.6-3.6,7.1c-3.8,10.2-3,21.5-0.9,32c1.1,5.6,2.6,11.2,4.3,16.7
			c1.8,5.9,3.5,11.8,5.8,17.5c4.1,10.3,10.1,20.3,19.8,26.3c2.2,1.4,4.5,2.5,6.9,3.3C1228.9,773.3,1229.2,771.9,1228.3,771.5
			L1228.3,771.5z"/>
		<path d="M1226.1,662.6l16.7,32.2c0.4,0.9,1.7,0.1,1.3-0.8l-16.7-32.2C1226.9,661,1225.6,661.8,1226.1,662.6z"/>
		<path d="M1389.3,557.2c-4.1-7.4-9.3-14.1-15.6-19.8c-6.2-5.6-14-9.5-19.5-15.9c-4.9-5.6-7.7-15.3-1.5-21.1s15.7-3.8,22.8-1.2
			c4.1,1.5,8,3.3,12.3,4.4c3.4,0.9,7,1.4,10.5,1.4c6.9,0,13.9-2.3,18.2-7.9c2.4-3.1,4.3-7,8.3-8.2c3.8-1.1,8,0.2,11.2,2.2
			c6.8,4.3,10.6,12.4,11.6,20.1c1,8.6-1.4,17.2-5.7,24.6c-4.4,7.6-10.6,13.7-17,19.6c-6.4,5.9-12.5,11.5-17.5,18.4
			c-4.6,6.4-8.1,13.6-10.4,21.1c-2.3,7.5-3.4,15.4-3.3,23.3c0.1,3.9,0.5,7.9,1.2,11.7c0.4,1.9,0.8,3.8,1.3,5.8
			c0.4,1.9,1.3,3.7,2.6,5.2c2.5,2.5,6.3,3.2,9.7,3.3c3.9,0.1,7.7-0.6,11.3-2c7.3-2.9,13.4-8,17.4-14.7c4.4-7,6.6-15.3,7.2-23.5
			c0.8-8.5-0.2-17.1-3.1-25.2c-6.1-16-21.9-26.7-38.2-30c-4-0.8-8-1.2-12.1-1.1c-0.4,0-0.8,0.3-0.8,0.8s0.3,0.8,0.8,0.8
			c17-0.2,35.1,7.7,44.8,22.1c4.9,7.3,7,16.2,7.3,24.9c0.4,8.6-1.1,17.1-4.3,25.1c-3.2,7.6-8.8,13.9-15.9,17.9
			c-3.6,1.9-7.5,3.1-11.5,3.5c-3.7,0.3-8.3,0.1-11.2-2.4c-1.7-1.5-2.2-3.6-2.8-5.6c-0.5-1.9-0.9-3.8-1.3-5.8c-0.7-3.9-1-7.9-1-11.9
			c0-8,1.3-16,3.9-23.6c2.6-7.6,6.4-14.7,11.4-21c5.3-6.7,11.9-12.3,18.1-18.2s11.9-12.1,15.8-19.7c3.7-7.3,5.7-15.5,4.6-23.7
			c-1-7.4-4.5-14.8-10.4-19.5c-5.5-4.4-13.9-6.2-19.1-0.5c-2.6,2.9-4.3,6.4-7.5,8.8c-2.8,2-6.1,3.3-9.5,3.7
			c-7.7,1.1-15.2-1-22.3-3.8c-7.4-2.9-15.5-6-23.5-3.1c-3.2,1.1-5.9,3.3-7.5,6.2c-1.6,3.1-2,6.7-1.1,10.1c1.7,8,8,13.3,14.3,17.8
			c3.5,2.4,6.9,5,10.1,7.8c6.3,5.6,11.5,12.2,15.5,19.6C1388.5,558.8,1389.7,558.1,1389.3,557.2L1389.3,557.2z"/>
		<path d="M1429.7,559.1c22.1,13,44.5,29.8,54.7,54.2c8.3,19.8,6.7,46-9,61.9c-2,2-4.2,3.8-6.6,5.4c-2.7,1.7-5.7,2.1-7.6-0.8
			c-1.4-2.3-2.1-4.8-2.1-7.5c-0.2-3.9-0.1-7.9,0.3-11.8c0.7-7.8,2.2-15.4,4.7-22.8c2.2-6.4,5.1-12.9,10.2-17.6
			c4.8-4.5,11.8-7.1,18.3-5c5.4,1.8,9.1,6.5,11.4,11.5c2.3,5.6,3.6,11.6,3.6,17.7c0.2,6.6-0.5,13.1-2.1,19.5
			c-3.2,12.7-9.5,24.4-18.4,34c-2,2.1-5,4.3-5.4,7.4c-0.1,1.4,0.3,2.7,1.1,3.9c0.4,0.6,0.7,1.2,0.9,1.8c0.2,1,0.2,2-0.1,3
			c-0.4,1.2-0.2,2.6,0.5,3.7c0.7,0.9,1.9,1.3,3,1.2c2.9-0.2,5.6-2.4,7.9-4c2.9-2,5.6-4.2,8.2-6.7l-1.2-0.9
			c-6.2,10-10.5,21.1-12.7,32.8c-0.2,0.9,1.3,1.4,1.4,0.4c2.1-11.5,6.4-22.5,12.5-32.4c0.5-0.7-0.6-1.5-1.2-0.9
			c-2.8,2.7-5.9,5.2-9.2,7.4c-1.4,1-8,5.5-8.1,1.1c0-1.6,0.7-3.1,0.3-4.8s-1.6-2.7-1.9-4.2c-0.4-1.9,1-3.6,2.2-4.9s2.4-2.5,3.6-3.8
			c8.9-10,15.2-22.1,18.2-35.2c1.5-6.5,2.1-13.1,1.8-19.7c-0.2-6-1.5-11.9-3.9-17.4c-2.3-5-6-9.5-11.2-11.5
			c-6-2.4-12.8-0.8-17.9,2.8c-5.7,3.9-9.2,10-11.8,16.3c-2.9,7.2-4.8,14.8-5.8,22.5c-0.5,3.9-0.8,7.8-0.9,11.7
			c-0.2,3.2,0.1,6.4,0.8,9.6c0.6,2.2,1.8,4.6,3.8,5.8c2.7,1.6,5.6,0.3,7.9-1.3c9.2-6.2,15.4-16,18.4-26.6c3-11.1,3-22.8,0.1-33.9
			c-3.2-12.2-10.1-23.2-18.5-32.5c-9-10-19.8-18.3-31.1-25.5c-2.8-1.8-5.7-3.5-8.5-5.2c-0.4-0.2-0.8-0.1-1,0.3
			C1429.2,558.5,1429.3,559,1429.7,559.1L1429.7,559.1z"/>
		<path d="M1492.6,769.6c7.5-1.3,12.3-8.1,14.3-15c2.8-9.5,0.4-19.7,1.3-29.4c1-10.2,4.6-20.1,6.7-30.1c2.2-10,3.4-20.1,3.6-30.3
			c0.3-17.4-3.1-34.6-10.1-50.5c-6.6-15.1-16.2-28.7-28.3-40.1c-6.1-5.9-12.9-10.9-20.2-15c-7.3-3.9-15.9-6.6-24.2-4.9
			c-2,0.4-3.9,1.1-5.8,2c-0.9,0.4-0.1,1.7,0.8,1.3c7.9-3.9,16.9-2.3,24.7,1.1c7.6,3.3,14.3,8.3,20.5,13.7
			c12,10.5,21.9,23.3,28.9,37.7c7.3,14.7,11.4,30.8,12.1,47.2c0.3,10-0.3,20.1-2.1,30c-0.8,4.8-1.8,9.6-3,14.4s-2.6,9.5-3.7,14.4
			c-1.1,4.7-1.7,9.5-1.8,14.4c0,5,0.4,10,0.2,14.9c-0.3,7.7-2.6,16.5-9.5,20.9c-1.5,1-3.2,1.6-5,1.9
			C1491.2,768.3,1491.6,769.8,1492.6,769.6L1492.6,769.6z"/>
		<path d="M1495.3,780.9c0.6-9.3,9.7-15,15.5-21.2c3.4-3.5,6-7.7,7.7-12.3c1.7-5,2.9-10.2,3.5-15.5c1.7-12.4,2.8-25,4.2-37.4
			l2.2-19.5c0.7-6.1,2-12.5,0.6-18.6c-2.5-10.6-12.6-17.2-21.3-22.5c-0.8-0.5-1.6,0.8-0.8,1.3c7.9,4.9,17,10.6,20.1,19.9
			c1.9,5.8,0.7,12,0.1,17.9l-2.1,19c-1.4,12.5-2.7,25-4.2,37.4c-1.2,10.4-3.3,20.9-10.7,28.9c-6.2,6.7-15.7,12.6-16.3,22.6
			C1493.7,781.9,1495.2,781.9,1495.3,780.9L1495.3,780.9z"/>
		<path d="M1138.6,1045.8c19.8,3.6,38.1,12.4,56.9,19.4c18.8,7.1,38.7,11.3,58.8,12.3c10.1,0.5,20.2,0.1,30.2-1
			c10.3-1.2,20.2-3.7,30.4-5.4c9.2-1.5,19-1.7,27.5,2.7c3.7,1.8,6.9,4.5,9.3,7.9c2.2,3.3,2.8,7.7,5.9,10.5
			c5.4,4.7,13.8,2.1,19.2-1.1c6.8-4,12.7-10.3,17.4-16.6c10.4-13.8,16.4-30.7,19.7-47.6c4.1-20.9,4.6-42.4,7-63.5
			c2.4-21.4,7.3-42.5,12.4-63.4c4.6-18.7,8.5-38.5,19.3-54.8c9.5-14.2,23.8-24.2,34.1-37.7c2.5-3.3,4.7-6.8,6.5-10.5
			c0.4-0.9-0.9-1.6-1.3-0.8c-7.5,15.5-21.8,26-33,38.6c-5.9,6.5-10.7,14-14.3,22c-3.6,8.5-6.5,17.4-8.7,26.4
			c-5.2,20.2-10.3,40.5-13.8,61s-4.4,41.5-6.7,62.3c-2.1,18.7-5.7,37.4-14.4,54.2c-3.9,7.7-9,14.8-15.1,21
			c-5.6,5.5-12.7,11.6-21,11.6c-4.7,0-7.6-2.6-9.3-6.7c-1.5-3.6-3.2-6.8-6-9.5c-5.4-5.2-13-7.8-20.4-8.3c-10.2-0.7-20.2,2-30.1,4
			c-30.1,5.9-61.2,4.3-90.5-4.6c-18.8-5.8-36.5-14.7-55.4-20.3c-4.7-1.4-9.5-2.6-14.3-3.5c-0.9-0.2-1.3,1.3-0.4,1.5L1138.6,1045.8z"
			/>
		<path d="M1322.3,959.4c-12.2-7.7-19.4-21-23.9-34.4c-2.6-7.8-4.6-15.8-6.7-23.8c-2-7.7-4.6-15.3-7.6-22.6
			c-6.1-14.1-13.9-27.5-23.2-39.7c-4.6-6.1-9.5-11.9-14.2-17.9s-9.1-12.7-11.3-20.3c-4.2-14.4-1.8-30.3,4.3-43.8
			c0.8-1.7,1.6-3.3,2.4-4.9c0.4-0.9-0.8-1.6-1.3-0.8c-6.9,13-10.6,28.2-8.4,43c1.2,7.5,3.9,14.6,8.1,20.9
			c4.3,6.6,9.7,12.4,14.5,18.6c10,12.4,18.5,25.9,25.3,40.2c3.4,7.3,6.3,14.9,8.5,22.7c2.3,8.1,4.3,16.4,6.8,24.5
			c4.2,13.6,10.4,27.5,21.9,36.6c1.3,1.1,2.7,2,4.1,2.9C1322.4,961.2,1323.1,959.9,1322.3,959.4z"/>
		<path d="M1440.7,951.5l-3.2,37.6c-0.5,6.2-0.9,12.5-2,18.6c-0.8,5.1-2.2,10.1-4.2,14.9c-7.4,18.4-21.2,33.3-32.4,49.4
			c-2.8,4-5.4,8.1-7.8,12.4c-1.2,2.1-2.7,7.5,1.1,8.1c1.1,0,2.3-0.3,3.2-0.9c1.3-0.7,2.5-1.3,3.7-2c2.5-1.4,4.8-3,7.1-4.7
			c4.5-3.4,8.5-7.4,13.2-10.5c9.3-6,20.6-6.5,31.3-6.5c12.4,0,24.8,0.1,37.2,0.4c25,0.5,50,1.4,75,2.7l9.4,0.5c1,0.1,1-1.4,0-1.5
			c-24.7-1.4-49.3-2.4-74-3c-12.4-0.3-24.7-0.5-37-0.5c-10.8-0.1-22-0.7-32.4,2.2c-4.9,1.4-9.5,3.7-13.6,6.9
			c-4.5,3.5-8.6,7.3-13.3,10.5c-2.3,1.5-4.7,2.9-7.2,4.2c-0.9,0.5-2.5,1.5-3.3,0.3c-0.4-0.9-0.5-1.9-0.2-2.8
			c0.4-2.1,1.8-3.9,2.8-5.7c1.3-2.1,2.6-4.2,4-6.3c10.7-16.1,24.3-30.4,32.6-48.1c2-4.2,3.6-8.6,4.8-13.2c1.3-5.6,2.2-11.3,2.6-17
			c1.1-12.3,2.1-24.6,3.2-37l0.8-8.9C1442.3,950.5,1440.8,950.6,1440.7,951.5L1440.7,951.5z"/>
		<path d="M1572.6,1070.8c0.3,0,0.5,0,0.8,0h0.4h0.2h0.1c0.5,0.1,1.1,0.2,1.6,0.4l0.2-1.5l-3.9-0.1l0.2,1.5c-0.1,0,0,0,0,0h0.2h0.3
			c0.2,0,0.4,0,0.6,0l0,0h0.1l0.3,0.1c0.2,0.1,0.4,0.1,0.7,0.2c0.4,0.1,0.8-0.1,0.9-0.5c0.1-0.4-0.1-0.8-0.5-0.9
			c-1-0.3-2-0.4-3.1-0.3c-0.4,0.1-0.6,0.5-0.5,0.9c0.1,0.3,0.4,0.5,0.7,0.5l3.9,0.1c0.4,0,0.7-0.3,0.7-0.7c0-0.4-0.2-0.7-0.5-0.8
			c-1.1-0.4-2.3-0.6-3.4-0.5c-0.4,0-0.8,0.3-0.8,0.8S1572.1,1070.8,1572.6,1070.8L1572.6,1070.8z"/>
		<path d="M1604.1,1082l-99.5,6.1l-24.4,1.5c-8.2,0.5-16.4,0.8-24.6,1.6c-7.2,0.7-14.1,2.1-20.5,5.5c-5.8,3.2-11.1,7.3-15.8,12
			c-5.1,5.1-9.8,10.4-14.3,15.9c-4.8,5.6-9,11.6-12.7,17.9c-6.9,12.2-10.9,25.8-13.7,39.5c-2.9,14.2-4.8,28.5-7.7,42.7
			c-3.2,15.3-7.9,30.2-12,45.2c-7.3,26.8-12.4,56.6-0.9,83.1c1.3,3.1,2.9,6.1,4.7,8.9c0.5,0.8,1.8,0.1,1.3-0.8
			c-15.3-24.4-12.7-54.9-6.1-81.6c3.7-14.9,8.5-29.5,12.2-44.5c3.5-13.9,5.5-28.2,8-42.3c2.4-13.7,5.4-27.4,10.9-40.2
			c5.8-13.6,15-25,24.8-35.9c9.1-10.1,19.5-19.9,33.2-22.9c7.7-1.7,15.7-1.8,23.5-2.2l24.2-1.5l97.5-5.9l12-0.7
			C1605.2,1083.5,1605.2,1082,1604.1,1082L1604.1,1082z"/>
		<path d="M1381.4,1363.9c2.1-6.8-2.9-12.6-6.8-17.6c-2.3-3-4.7-6.1-5.8-9.7c-1.5-4.6-0.9-9.6-0.6-14.3c1.6-20.9,3.1-41.7,4.7-62.6
			c1.3-17.4,3-35.1,8.7-51.7c2.7-8.2,6.6-15.9,11.6-22.9c5.5-7.5,12.3-13.9,20.1-19.1c28.9-19.2,65.7-21.6,96.9-6.5
			c8,4,15.5,9.3,18.4,18.1c1.3,4.4,2,9,2.2,13.6c0.3,4.8,0.6,9.6,0.8,14.5c0.8,19.3,0.6,39.2-5.8,57.7c-3.3,9.3-8.3,17.9-12.1,27
			c-3.7,8.9-5.3,18.5-8.8,27.4c-6.8,17.4-22.8,29.5-38.5,38.5c-4.1,2.4-8.3,4.5-12.7,6.5c-0.9,0.4-0.1,1.7,0.8,1.3
			c9.1-4.1,17.8-9.2,25.9-15.1c7.2-5.2,13.9-11.1,19.1-18.3c5.7-7.8,8.5-16.9,11-26.1c1.3-4.8,2.8-9.5,4.6-14.1
			c2-4.7,4.3-9.3,6.5-13.9c4.4-8.8,7.5-18.1,9.4-27.8c1.7-9.7,2.5-19.6,2.3-29.4c0-9.8-0.5-19.7-1.2-29.5c-0.2-4.6-1-9.1-2.4-13.5
			c-1.5-4.1-4-7.8-7.2-10.7c-6.2-5.7-14.5-9.3-22.3-12.1c-8-2.8-16.4-4.5-24.9-5.2c-17.1-1.3-34.3,1.7-49.8,8.9
			c-16.2,7.5-30.3,19.8-39,35.5c-8.5,15.5-11.8,33.2-13.7,50.6c-1,9.4-1.7,18.8-2.4,28.2l-2.4,32.5l-1.2,16.1c-0.4,4.8-1,9.8,0,14.5
			c1.5,7.6,7.8,12.7,11.6,19.1c1.7,3,2.7,6.2,1.6,9.5C1379.7,1364.5,1381.2,1364.9,1381.4,1363.9L1381.4,1363.9z"/>
		<path d="M1593.4,1356.8l25.2-60.3c8.4-20,16.8-40.1,25.2-60.1c4-9.5,7.8-19.1,10.4-29c2.5-9.9,4.2-20,4.9-30.2
			c0.9-10.3,1-20.7,1-31c0-8.1,0.5-16.9-3.1-24.3c-1.6-3.5-4.4-6.3-7.8-8c-3.7-1.6-7.7-2.4-11.7-2.1c-8.3,0.3-16.8,2.5-24.6,5.2
			c-15.4,5.5-29.8,15.2-38.1,29.6c-4.9,8.5-7.6,18.1-10.4,27.4c-2.7,9-5.2,18.1-7.6,27.2c-4.7,18.2-9.1,36.5-13.7,54.7
			c-4.7,18.2-9.6,36.2-15.8,54c-5.9,17.6-13.4,34.7-22.3,51.1c-2.2,4-4.6,8-7,11.9c-0.5,0.8,0.8,1.6,1.3,0.8
			c9.6-15.5,17.7-31.9,24.2-48.9c6.5-17.1,12.1-34.6,16.8-52.3c4.8-17.8,9.1-35.8,13.6-53.8c4.5-17.9,9.1-36.1,14.8-53.8
			c2.9-8.9,6.5-17.7,12.5-25c5.3-6.3,11.7-11.5,18.9-15.4c7.2-4,15-7,23.1-8.9c7.8-1.9,17.5-4.1,25.2-0.3s9.6,12.6,10,20.5
			c0.2,4.6,0.2,9.2,0.1,13.8c0,5.1-0.1,10.2-0.3,15.3c-0.3,10.2-1.3,20.3-3,30.4c-1.8,10-4.6,19.8-8.3,29.3
			c-3.7,9.8-7.9,19.3-11.9,29l-12.3,29.4l-24.8,59.3l-6,14.4C1591.6,1357.3,1593.1,1357.7,1593.4,1356.8L1593.4,1356.8z"/>
		<path d="M1045.7,1133.7c4.9-11.7,10.5-23.1,16.9-34c3-5.1,5.9-10.5,10.3-14.5c4.1-3.7,10.5-6.2,15.8-3.4c2.6,1.4,4.6,3.7,6.5,5.9
			l6.7,7.6l13.4,15.2c8.8,10,17.6,20,26.4,30c8.1,9.3,15.7,18.9,20.2,30.5c4.3,11.3,6.2,23.3,8.1,35.1c4,24.8,10.7,48.9,17.3,73
			s13.1,48.7,15.8,73.7c0.3,3.1,0.6,6.2,0.8,9.4c0.1,1,1.6,1,1.5,0c-1.8-25.8-7.9-51-14.6-75.9s-14-49.7-18.4-75.2
			c-2.1-12.3-3.7-24.7-7.6-36.6c-1.9-5.8-4.4-11.3-7.6-16.4c-3.3-5.2-7-10.1-11-14.8c-8.7-10.3-17.8-20.3-26.6-30.4l-13.7-15.6l-7-8
			c-1.9-2.4-4-4.6-6.2-6.8c-3.9-3.5-9.5-4.4-14.4-2.4c-5.2,2-8.9,6.3-11.9,10.8c-7,10.8-13.1,22.1-18.3,33.9
			c-1.2,2.8-2.5,5.6-3.6,8.4C1043.9,1134.2,1045.3,1134.6,1045.7,1133.7L1045.7,1133.7z"/>
		<path d="M1062,1125.8c-3.3,19.9-3.1,40.1-1,60c2.1,20.2,6,40.1,9.9,60c3.9,20.2,7.8,40.5,9.7,61c0.9,9.2,1.2,18.7,5,27.3
			c3.3,7.5,9.3,13.5,16.4,17.6c7.7,4.5,16.5,6.7,25.4,7.7c5.2,0.5,10.3,0.7,15.5,0.6c5,0,10.2,0.1,15.2-0.4c4-0.3,7.9-1.6,11.1-4
			c2.6-2.1,4.6-4.7,6-7.7c2.9-6.5,3.6-13.8,2-20.8c-2-9.1-6.9-17.3-11.1-25.6c-2.3-4.4-4.2-8.9-5.8-13.5c-1.5-4.7-2.8-9.5-3.8-14.4
			c-2.1-9.8-3.6-19.8-6.2-29.5c-2.8-10-6.3-19.7-10.3-29.2c-7.4-18.1-14.8-36.4-25.9-52.6c-9.7-14.1-22.4-26.6-38.2-33.5
			c-3.8-1.6-7.7-2.9-11.7-3.9c-0.9-0.2-1.3,1.2-0.4,1.5c16.5,3.8,30.7,14.2,41.6,26.9c12.3,14.3,20.4,31.6,27.7,48.8
			c3.9,9.2,7.8,18.5,11.2,27.9c3.3,9.3,5.9,18.8,7.8,28.5c1.9,9.5,3.5,19.1,6.4,28.4c2.8,9,7.4,17,11.6,25.3
			c3.7,7.4,6.9,15.4,6.5,23.8c-0.3,6.8-2.8,14.1-8.3,18.4c-3.4,2.7-7.7,3.5-11.9,3.8c-5,0.3-10,0.3-15.1,0.3
			c-9.7,0-19.6-0.7-28.9-3.8c-7.7-2.6-15-6.9-20.2-13.1c-6-7.1-8.1-16.1-9.1-25.1c-1-9.6-1.8-19.2-3.2-28.7
			c-1.4-9.9-3.2-19.7-5-29.5c-3.7-19.5-7.8-39-10.6-58.7c-2.8-19.4-4.2-39.2-2.6-58.8c0.4-4.9,1-9.7,1.8-14.6
			C1063.5,1125.3,1062.1,1124.9,1062,1125.8L1062,1125.8z"/>
		<path d="M1198.5,1318.7c1.3-33.3-2.1-66.5-9.8-98.9c-2-8.1-4.2-16.2-6.7-24.2c-2-6.4-5.1-13.5-3.9-20.3
			c1.5-8.3,10.3-10.4,17.5-11.1c7.8-0.8,15.9-0.2,23.4-2.9c7-2.5,13-7.3,20.2-9.2c5.2-1.4,12-0.8,15.9,3.3c0.9,1,1.6,2.2,2.1,3.5
			c0.3,0.9,1.8,0.5,1.4-0.4c-1.8-5.4-7.2-8-12.6-8.5c-7-0.6-13.2,2.8-19.2,6c-3.5,2-7.2,3.6-11.1,4.7c-4.1,0.9-8.3,1.4-12.6,1.5
			c-4.1,0.1-8.1,0.5-12.2,1.1c-3.6,0.7-7.4,1.8-10.3,4.3c-5.2,4.5-4.7,11.8-3.3,17.8c0.9,3.7,2.2,7.3,3.3,10.9
			c1.3,4.1,2.5,8.3,3.7,12.5c9.3,33.6,13.6,68.4,12.9,103.3c-0.1,2.1-0.1,4.3-0.2,6.4C1197,1319.7,1198.4,1319.7,1198.5,1318.7
			L1198.5,1318.7z"/>
		<path d="M1285.1,968.8l7-14.7c1.2-2.4,2.3-4.8,3.4-7.2c0.9-2.2,2.1-4.2,3.7-5.9c3.3-3.3,8.3-2.8,12.6-3.4
			c4.3-0.6,8.2-2.3,12.2-3.8c4.6-1.7,9.4-3.2,14.3-1.6c0.5,0.2,0.7-0.6,0.2-0.7c-8.8-3-17.2,3.7-25.6,5.2c-4.2,0.8-8.8,0.2-12.6,2.5
			c-3.9,2.5-5.6,7.7-7.4,11.7l-8.3,17.6C1284.3,968.9,1285,969.3,1285.1,968.8L1285.1,968.8z"/>
		<path d="M1296.1,964.8c2.5-4.6,5.2-9,8.3-13.2c3.2-4.2,7.1-7.7,11.6-10.5c4.4-2.6,9.1-4.7,13.9-6.3c5-1.7,10.1-3.3,15.3-4.6
			c5.4-1.4,11-2.1,16.5-2c5.3,0,10.6,0.4,15.9,0.2c4.8-0.2,10-1,14.3-3.4c3.2-1.8,6.3-5.8,3.6-9.3c-1.3-1.8-3.5-2.7-5.5-3.4
			c-2.9-1.1-5.9-2-8.9-2.8c-6.1-1.7-12.3-2.8-18.6-3.5c-1-0.1-0.9,1.4,0,1.5c5.4,0.6,10.8,1.6,16.2,2.9c2.7,0.7,5.3,1.4,7.9,2.3
			c2.2,0.6,4.4,1.5,6.4,2.6c1.9,1.3,2.8,3.5,1.5,5.6s-3.6,3.2-5.8,4c-4.8,1.8-9.8,2.2-14.9,2.2s-10-0.4-15-0.2
			c-5.2,0.2-10.4,1-15.4,2.5c-9.3,2.6-19,5.3-27.4,10.3c-4.6,2.7-8.7,6.3-12,10.5c-3.4,4.4-6.4,9.1-9,14c-0.2,0.4,0,0.8,0.3,1
			C1295.5,965.2,1295.9,965.1,1296.1,964.8L1296.1,964.8z"/>
		<path d="M1363,906c-14.5,0.7-29,2.5-43.2,5.4c-7.1,1.4-14,3.1-20.9,5.2c-3,0.9-5.8,2.2-8.4,4c-2.5,1.9-4.8,4.2-6.8,6.8
			c-9.4,11.5-18.4,23.3-27.7,35c-8.1,10.3-17.2,20.7-21,33.5c-4,13.5-2.4,28-0.7,41.7c1.8,14.3,4.6,28.5,7.6,42.6
			c6,28.5,12.6,56.9,13.7,86.2c1,29.1-2.1,58.1-9.4,86.3c-0.9,3.5-1.8,7-2.8,10.4c-0.1,0.4,0.1,0.8,0.5,0.9c0.4,0.1,0.8-0.1,0.9-0.5
			c8-27.3,12.2-55.5,12.5-83.9c0.1-14-0.9-28.1-2.8-42c-2-14.1-4.8-28.1-7.8-42.1c-3-14-6.1-28.1-8.6-42.3
			c-2.4-13.9-4.7-28.4-4-42.5c0.2-7.1,1.8-14.1,4.7-20.7c2.9-5.9,6.4-11.5,10.4-16.6c8.9-11.7,18.1-23,27.2-34.6
			c4.2-5.3,8.1-11.3,13.2-15.7c5.1-4.4,12.4-6,19-7.6c14.3-3.6,28.9-6,43.6-7.2c3.5-0.3,7.1-0.5,10.7-0.7
			C1364,907.5,1364,906,1363,906L1363,906z"/>
		<path d="M1230.1,1359.1c2.1-27.6,5.9-55,11.4-82.1c1.5-7.6,3.2-15.2,5-22.8c0.2-0.9-1.2-1.3-1.4-0.4
			c-6.5,26.9-11.3,54.3-14.3,81.8c-0.9,7.8-1.6,15.6-2.2,23.5C1228.5,1360.1,1230,1360.1,1230.1,1359.1L1230.1,1359.1z"/>
		<path d="M1308.5,1359.1c1.6-24.2,6.4-48,9.4-72.1c1.6-11.9,2.4-24,2.5-36c0.1-5.8-0.2-11.6-0.8-17.3c-0.4-3.6-1.4-7.7-4.4-10.1
			s-6.9-1.9-9.8,0.3c-3.6,2.7-5.7,7-7.1,11.1c-3.5,10.5-5.8,21.3-6.8,32.3c-2.4,22.6-1.4,45.4-5.8,67.8c-0.5,2.7-1.2,5.4-1.9,8.1
			c-0.6,2.4-1.2,5.6-3.1,7.4c-1.8,1.6-4.4,1.4-6.4,0.4c-2.2-1.2-3.8-3.3-4.4-5.7c-1.5-5.4-0.3-11.8,0.4-17.3
			c0.7-6.2,1.7-12.3,2.9-18.3c2.3-12.1,5.2-24,8-36l8.5-36.6l8.5-36.6c1.3-5.7,2.2-11.8,5.1-17c2.7-4.8,6.9-8.7,10.4-13
			c13-16.1,21-35.7,23.1-56.3c1.9-20.4-2.5-40.8-12.6-58.7c-2.4-4.3-5.2-8.4-8.3-12.3c-1.6-2.1-3.4-4.1-5.2-6
			c-1.3-1.4-5.6-5.5-2.6-7.2c2.2-1.3,4.8,1.2,6,2.8c1.2,1.6,2.1,3.3,3.7,4.4c3.5,2.5,7.6,0.2,9.2-3.4c2-4.5-0.7-9.3-2.9-13.1
			l-0.8,1.1c4.1,0.6,6.2-3.5,8.6-6.1c1.6-1.7,4-3,6.2-1.3s2.8,5,3.2,7.7c0.8,4.6,2.8,10.2,8.5,9.2c5.5-0.9,9-6.8,14.9-6.1
			c1.4,0,2.7,0.9,3.2,2.2c0.6,1.8-0.6,4.2-1.1,6c-1.3,4.3-2.8,8.5-4.5,12.7c-0.3,0.9,1.1,1.3,1.4,0.4c1.5-3.9,2.9-7.8,4.2-11.7
			c0.8-2.6,2.6-6.2,0.9-8.9c-2.4-3.8-8.6-2.2-11.6-0.2c-2.8,1.8-6.4,5-9.9,4c-3.3-0.9-4-4.7-4.5-7.6c-0.7-4.1-2.4-11.1-8-10
			c-2.3,0.4-3.9,2.3-5.3,4c-1.4,1.7-3.2,4.6-5.8,4.2c-0.4-0.1-0.8,0.1-0.9,0.6c0,0.2,0,0.4,0.1,0.5c1.5,2.5,3,5.1,3.3,8
			c0.3,2.9-0.9,6-3.7,7s-4.8-1.4-6.3-3.5c-0.9-1.6-2.3-3-3.9-4c-2.8-1.5-7.1-0.5-6.4,3.5c0.4,2.1,1.9,3.7,3.3,5.2
			c1.8,1.8,3.4,3.7,5,5.7c13.1,16.3,20.6,36.4,21.5,57.3c0.7,21.2-5.1,42.1-16.7,59.9c-3,4.6-6.3,8.9-9.9,13
			c-3.5,3.9-6.9,7.8-8.7,12.8c-2,5.4-3,11.3-4.3,16.9l-4.2,18.1c-5.6,24.3-11.4,48.5-16.9,72.9c-2.7,11.6-4.8,23.3-6.3,35.2
			c-0.8,7.6-3,22.2,8,23.6c4.2,0.5,6.7-2.4,7.8-6.2c1.6-5.3,2.8-10.7,3.6-16.1c1.6-11,2.7-22.1,3.1-33.2c0.6-11.2,1-22.3,2.3-33.4
			c0.7-5.6,1.6-11.2,2.9-16.7c1.2-5.3,2.6-11,5-15.9c1.9-3.7,5.5-8.9,10.3-8.1c4.8,0.8,6.1,6.5,6.6,10.6c1.3,11.8,1,23.9,0,35.7
			c-1.9,24.1-6.6,47.7-9.5,71.7c-0.7,5.8-1.3,11.7-1.7,17.6C1306.9,1360,1308.4,1360,1308.5,1359.1L1308.5,1359.1z"/>
		<path d="M1273.3,1088.1c-0.2-7.7,4.5-14.5,11-18.3c6.6-3.9,14.8-4.1,21.6-0.5c6.9,3.5,12.2,9.6,14.6,17c3,9.3,1.5,19.4,0.4,28.9
			c-1.1,9.8-2,19.7-4.4,29.2c-2.1,8-5.5,16.1-11.6,21.9c-5.4,5.2-12.7,7.8-20.1,5.7c-3.2-0.8-6.1-2.6-8.3-5.1
			c-2.8-3.3-3.3-7.6-3.2-11.8c0.2-5,0.8-9.9,0.9-14.9c0.1-5.2-0.1-10.4-0.5-15.5c-0.8-9.7-2.7-19.4-1.7-29.1
			c0.3-2.5,0.7-4.9,1.4-7.3c0.1-0.4-0.2-0.8-0.6-0.9c-0.3-0.1-0.7,0.1-0.8,0.5c-2.9,10.1-1.5,20.7-0.3,30.9
			c1.2,10.9,1.4,21.9,0.5,32.9c-0.4,4.6-0.6,9.4,1.5,13.6c1.6,3,4.2,5.4,7.2,6.8c6.6,3.2,14.4,2.7,20.6-1.2
			c7.1-4.4,11.7-12,14.5-19.7c3.5-9.7,4.6-20.1,5.8-30.3c1.2-10.2,3.2-20.8,1.3-31c-1.5-8.1-6.2-15.3-13.1-20
			c-6.5-4.4-14.8-6-22.2-3.3c-7.2,2.6-13.3,8.6-15.3,16.1c-0.5,1.8-0.7,3.7-0.6,5.5c0,0.4,0.3,0.8,0.8,0.8
			S1273.3,1088.6,1273.3,1088.1L1273.3,1088.1z"/>
		<path d="M1256.1,1157.5c6.3,16.1-3.7,33-1.1,49.5c0.2,1,1.6,0.5,1.4-0.4c-2.6-16.5,7.4-33.3,1.1-49.5
			C1257.2,1156.2,1255.8,1156.6,1256.1,1157.5z"/>
		<path d="M1255.1,1206c0.2,2,0.1,4-0.5,5.9c-0.5,2-1,3.9-1.4,5.9c-0.2,0.9,1.2,1.3,1.4,0.4c0.5-2.1,1.1-4.2,1.6-6.3
			c0.6-2,0.7-4.2,0.4-6.3C1256.3,1204.6,1254.9,1205,1255.1,1206L1255.1,1206z"/>
		<path d="M1322.1,1057.1c-1,2.9-3.2,5.3-6,6.6c-2.3,1.1-6.2,1.9-8.2-0.2c-2.3-2.4,2.3-3.8,3.8-4.5c2.3-0.9,4.2-2.7,5.2-5
			c1.3-2.8,2.2-5.4,4.2-7.7c2.6-2.8,5.4-5.4,8-8.1l3.8-3.8c1.1-1.4,2.5-2.6,3.9-3.6c1.6-0.9,3.5-0.6,5.3-0.4l6,0.6
			c3.8,0.5,7.6,0.9,11.4,1c3.2,0,6.3-0.6,8.7-2.9c0.7-0.7-0.4-1.7-1.1-1.1c-2.6,2.5-6.4,2.6-9.7,2.3c-4-0.3-8-0.8-12-1.2
			c-3.5-0.3-7.5-1.4-10.5,1c-1.5,1.3-2.9,2.7-4.2,4.1l-4.7,4.7c-2.7,2.7-5.8,5.3-7.9,8.5c-1.7,2.6-2.2,6.1-4.3,8.4
			c-1.8,2-4.8,1.9-6.8,3.7c-1.4,1.2-1.6,3.4-0.3,4.9c0.3,0.3,0.6,0.6,1,0.8c2.7,1.7,6.4,1,9.2-0.3c3.1-1.5,5.5-4.2,6.7-7.5
			c0.3-0.9-1.1-1.3-1.4-0.4L1322.1,1057.1z"/>
		<path d="M1355.3,1031.6c-0.1,11,8.9,21,19.8,22.2c2.5,0.3,5.6,0.2,6-2.9c0.2-1.6,0.2-3.3,0.3-4.9l0.3-5.9
			c0.2-3.5,0.8-7.4,0.1-10.9c-0.7-3.3-3.2-5.2-5.7-7.2c-6-4.6-12.1-8.8-18.5-12.8c-5.4-3.4-11.8-8.1-18.6-7.5
			c-3.5,0.3-6.7,2-9.9,3.4l-10.8,5l-21.5,10c-3.5,1.6-7.1,3.2-10.5,5c-3,1.4-5.6,3.5-7.7,6c-4.5,6-2.5,14-5.2,20.6
			c-0.4,0.9,1.1,1.3,1.4,0.4c2.2-5.5,1.1-11.8,3.4-17.3c2.3-5.5,8-8.1,13.1-10.5l38.6-18c3.2-1.5,6.4-3.2,10-3.3
			c3.2,0.1,6.3,1,9.1,2.7c5.8,3.2,11.5,6.8,16.9,10.6c2.8,1.9,5.6,3.9,8.4,6c2.7,2,5.7,4,6.2,7.5c0.5,3.2,0,6.8-0.2,10.1l-0.2,5.2
			c0.1,1.9,0,3.8-0.3,5.6c-0.7,2.9-6.4,1.2-8.3,0.5c-2.7-0.9-5.3-2.4-7.4-4.4c-4.4-3.9-7-9.5-7.1-15.4c0-0.4-0.3-0.8-0.8-0.8
			s-0.8,0.3-0.8,0.8L1355.3,1031.6z"/>
		<path d="M1253,1035.5c2.9-6.4,0.2-13.6,2.6-20c2.1-5.8,8.1-9,13.5-11.2c7.1-2.9,14.4-5.4,21.6-8.2l22.7-8.6
			c3.7-1.4,7.3-2.8,11-4.1c3.7-1.5,7.6-2.5,11.6-2.9c7.6-0.6,14.9,2.6,21.8,5.3c12,4.8,24.3,9.9,34.5,18c2.7,2.2,5.3,4.5,7.6,7.1
			c0.6,0.7,1.2,1.4,1.8,2.1c0.6,0.7,2.2,2.2,1.6,3.2c-0.4,0.7-1.8,1.2-2.4,1.5c-0.9,0.5-1.8,0.9-2.8,1.3c-7.2,2.9-15.1,3.3-22.5,1
			c-0.9-0.3-1.3,1.2-0.4,1.5c6.8,2.1,14.1,2,20.8-0.1c1.6-0.5,3.2-1.2,4.7-1.9c1.3-0.6,3.1-1.3,3.9-2.6s0-2.7-0.9-3.8
			c-1-1.3-2.1-2.6-3.2-3.9c-9.2-10-21.7-16.4-34-21.6c-3.2-1.3-6.4-2.6-9.6-3.9c-3.7-1.6-7.5-2.9-11.3-3.9c-3.8-1-7.7-1.2-11.5-0.7
			c-4.1,0.7-8.1,1.9-12,3.5c-16.1,6.1-32.3,12.1-48.4,18.2c-5.8,2.2-12.1,4.3-16.4,9c-2.1,2.3-3.4,5.2-3.8,8.2
			c-0.5,3.6-0.1,7.3-0.3,10.9c-0.1,1.9-0.5,3.8-1.3,5.6C1251.3,1035.6,1252.6,1036.4,1253,1035.5L1253,1035.5z"/>
		<path d="M1373.1,1021.1c0.8-0.1,1.6,0.1,2.4,0.5c0.9,0.4,1.6-0.8,0.8-1.3l-10.2-6c-0.4-0.2-0.8-0.1-1,0.3c-0.2,0.4-0.1,0.8,0.3,1
			l10.2,6l0.8-1.3c-1-0.5-2.1-0.7-3.1-0.7C1372.1,1019.7,1372.1,1021.2,1373.1,1021.1L1373.1,1021.1z"/>
		<path d="M1382.7,1022.3c-0.3-2-1.8-3.2-3.1-4.5c-0.8-0.6-1.5-1.4-2-2.2c-0.6-1.3-0.9-2.6-0.8-4c0-2.2-0.6-4.3-1.9-6.1
			c-1.2-1.5-2.8-2.7-4.7-3.4c-4.8-2-10.3-1.1-15.2-2.7c-4.7-1.5-7.7-5.7-11.8-8.2c-0.9-0.7-2-1.1-3.1-1.4c-1.2-0.1-1.6,0.8-1.8,1.8
			c-0.6,3.5-1.1,6.9-1.6,10.4c-0.2,0.9,1.3,1.3,1.4,0.4l1.3-8.4c0.1-0.7,0.2-1.3,0.3-2c0.2-0.8,0.3-0.8,1-0.4c1,0.5,2,1,2.9,1.7
			c3.4,2.4,6.2,5.7,10.3,7.2c4.5,1.7,9.4,1,14,2.3c2,0.5,3.9,1.5,5.3,3c1.7,1.8,1.8,4,2,6.3c0,2.1,0.8,4.1,2.2,5.7
			c1.4,1.5,3.5,2.7,3.8,4.9C1381.4,1023.7,1382.8,1023.2,1382.7,1022.3L1382.7,1022.3z"/>
		<path d="M1331.3,1005.1c1.2-2.5,2.5-5.3,2.3-8.1c-0.1-2.2-1.3-4.3-3.2-5.4c-2.2-1.3-4.7-0.5-6.7,1c-2.4,1.8-4.6,3.8-7,5.6
			c-4.8,3.6-9.9,6.6-15.2,9.2c-5.2,2.5-11.2,4-15.8,7.6c-4.3,3.3-7.3,9.1-4.9,14.4c0.4,0.9,1.7,0.1,1.3-0.8c-2-4.5,0.8-9.6,4.4-12.4
			c4-3,8.9-4.4,13.4-6.4c4.7-2.1,9.2-4.6,13.5-7.4c2-1.3,4-2.8,6-4.3c2-1.6,3.9-3.6,6.1-4.9c2.8-1.6,5.5-0.2,6.4,2.7
			c0.9,3-0.6,6-1.8,8.5C1329.6,1005.2,1330.9,1006,1331.3,1005.1L1331.3,1005.1z"/>
		<path d="M1274.5,1001.2c6.6-4.5,9.2-12.5,15.1-17.6c3.7-3.2,8.7-4.4,13.3-5.7l15.8-4.4l17.7-4.9c0.4-0.1,0.6-0.5,0.5-0.9
			c-0.1-0.4-0.5-0.6-0.9-0.5l-32,8.9c-4.6,1.3-9.5,2.3-13.5,5c-3.2,2.2-5.6,5.3-7.7,8.4c-2.6,3.8-5.1,7.8-9,10.5
			C1272.9,1000.4,1273.7,1001.7,1274.5,1001.2L1274.5,1001.2z"/>
		<path d="M1344.5,971c1.2,2.9,4.2,4.3,7.1,5.1c3.8,1,7.7,1.2,11.4,2.5c6.3,2.2,11.1,7.4,12.8,13.9c0.1,0.4,0.5,0.6,0.9,0.5
			c0.4-0.1,0.6-0.5,0.5-0.9l0,0c-1.6-6.1-5.8-11.3-11.5-14c-3.4-1.6-7.1-2-10.8-2.7c-3.4-0.7-7.6-1.6-9.1-5.1
			C1345.4,969.4,1344.1,970.1,1344.5,971L1344.5,971z"/>
		<path d="M1393.9,1003.7c3.6,0.5,7.3,0,10.7-1.4c2.5-1,5.4-2.7,5.7-5.7c0.3-3.3-3-5.9-5.1-8c-2.7-2.7-5.6-5.2-8.5-7.6
			c-12.2-9.7-27.3-14.7-41.6-20.4c-7.4-3-14.8-6.4-22.6-7.9c-3.7-0.8-7.4-0.9-11.1-0.4c-3.7,0.6-7.2,1.7-10.6,3.3
			c-15.4,6.5-30.8,13.2-46.3,19.8c-3.6,1.5-7.2,3-10.7,4.6c-3,1.2-5.7,2.9-8.2,4.9c-5.3,4.6-6,11.3-5,17.9c0.3,1.8,0.6,3.5,1,5.2
			c0.2,0.9,1.7,0.5,1.4-0.4c-1.4-6.4-2.8-14,1.6-19.6c3.9-5,10.7-7.2,16.3-9.6l43-18.4c6.7-2.9,13.5-6.5,20.9-6.6s14.6,2.4,21.5,5.1
			c7.1,2.8,14.2,5.7,21.2,8.6c6.8,2.6,13.4,5.6,19.7,9.1c6.8,4.2,13.1,9.2,18.6,14.9c1.3,1.3,2.9,2.8,3,4.8c0.1,1.9-1.6,3.2-3.1,4.1
			c-3.6,1.9-7.8,2.7-11.9,2.1C1392.9,1002,1393,1003.5,1393.9,1003.7L1393.9,1003.7z"/>
		<path d="M1335.6,947.8c-0.9-5.2-1.8-11.1,0.9-15.9c2.4-4.2,7-7.2,11.5-8.8c9.2-3.1,19.4-1.3,26.9,4.8c7.5,5.9,14.8,16.8,9.9,26.4
			c-4.4,8.6-14.3,15.7-24.3,13.6c-5.6-1.2-10.8-4.4-15.3-7.8c-4.4-3.2-8.4-7.2-10-12.5c-0.3-0.9-1.7-0.5-1.4,0.4c1.5,5,5,8.9,9,12.1
			c4.3,3.6,9.2,6.4,14.4,8.4c5,1.8,10.4,1.6,15.3-0.5c4.8-2.2,8.9-5.7,11.9-10.1c3.3-4.7,4.6-10.1,2.7-15.7c-1.8-5-4.7-9.5-8.5-13.1
			c-7.5-7.2-18-10.6-28.2-8.2c-5.5,1.3-11,4.3-14.4,9c-3.9,5.4-3,12.2-1.9,18.4C1334.3,949.3,1335.8,948.8,1335.6,947.8
			L1335.6,947.8z"/>
		<path d="M1249.1,992.2c-3.6,5.1-7.3,11.5-7.3,18c0,5.2,3,10.6,8.5,11.4s9.2-3.9,9.6-9c0.2-3.3-0.5-6.6-1-9.8
			c-0.3-1.7-0.5-3.3-0.6-5c0-1.9,0.5-3.8,0.4-5.7c-0.1-2.4-1.7-5.2-4.4-4.8c-2.5,0.4-3.3,3.3-5.2,4.6c-0.8,0.5,0,1.8,0.8,1.3
			c1.5-1,2.2-2.7,3.5-3.8c0.7-0.8,1.9-0.8,2.7-0.2c1,1,1.4,2.4,1.1,3.8c-0.1,1.4-0.4,2.7-0.4,4.1c0,1.4,0.1,2.8,0.3,4.2
			c0.4,2.7,1,5.4,1.2,8.1c0.4,4.6-1,11.1-6.9,10.9c-5.2-0.2-8-5.3-8.1-10c0-6.2,3.6-12.3,7.1-17.2c0.6-0.8-0.7-1.5-1.3-0.8
			L1249.1,992.2z"/>
		<path d="M1262.5,1016.2c-0.8,6.1-5.6,11-5.2,17.2c0.3,5,3.7,11.1,9.6,9.3c6.1-1.9,7.4-9.1,8.8-14.5c1.4-4.9,4.8-12.8,0.2-17
			c-2.1-1.9-5-2.5-7.7-1.5c-2.7,1.1-4.7,3.6-5.2,6.5c-0.2,1,1.3,1.3,1.4,0.4c0.4-2.5,2-4.5,4.3-5.5c2.2-0.8,4.8-0.2,6.4,1.5
			c1.8,2,1.6,4.9,1.2,7.4c-0.5,2.7-1.4,5.4-2.1,8c-1.3,4.6-2.3,11.3-7.6,13.1c-5.8,1.9-8.3-5.4-7.8-9.8c0.6-5.4,4.5-9.8,5.2-15.3
			C1264.2,1015.2,1262.7,1015.3,1262.5,1016.2L1262.5,1016.2z"/>
		<path d="M1281.5,1034.6c-1,0.5-1.8,1.3-2.3,2.3c-0.8,1.3-1.4,2.6-1.8,4c-0.9,2.7-1,5.5-0.3,8.3c1.3,4.9,5.6,8.3,10.6,8.7
			c5.8,0.3,9.8-5,12.2-9.6c2.5-4.8,2.9-11.3-1.9-14.8c-4.6-3.4-12.6-3.1-16.8,1c-0.7,0.7,0.4,1.7,1.1,1.1c3.2-3.2,9.2-3.6,13.2-1.8
			c4.9,2.2,5.7,7.8,3.8,12.4c-1,2.3-2.3,4.4-3.9,6.3c-1.4,1.9-3.4,3.2-5.6,3.8c-4,0.8-8.3-1.6-10.2-5c-1.2-2.4-1.7-5.1-1.2-7.8
			c0.2-1.3,0.6-2.6,1.2-3.8c0.4-1,1.3-3.1,2.4-3.5C1282.8,1035.8,1282.4,1034.4,1281.5,1034.6L1281.5,1034.6z"/>
		<path d="M1312.1,904.7c-3.2,2-7.6-0.8-6.6-4.6c0.4-1.8,1.8-3.1,3.7-3.3c1-0.1,1.9,0.3,2.4,1.2c0.3,0.7-0.1,1.5-0.8,1.8
			c-0.1,0-0.2,0.1-0.3,0.1l0.2,1.5c5.8-2.2,9.9-6.8,14-11.2s8.4-9.1,14.5-10.1c4.2-0.7,8.3,0.8,12.3,1.7c2,0.5,4,0.8,6.1,0.8
			c2-0.1,4.1-0.5,6-1.2c2-0.7,4.1-1.1,6.3-1.1c2.1,0.1,4.2,0.7,6.1,1.6c3.7,1.9,7,4.4,9.7,7.4c5,5.3,9.8,12.1,17,14.5
			c2.4,0.8,5.7,0.9,7.6-1c1.9-1.9,1.2-5-1.1-6.4c-2.8-1.7-5.9-0.8-8.2,1.2c-2.8,2.5-4.5,6-7,8.8c-5.1,5.9-11.7,10.3-19.1,12.8
			c-8.4,2.6-17.4,1.6-26,0.6c-4.6-0.4-9-1.6-13.2-3.5c-3.8-2-7.4-4.5-10.5-7.4c-1.6-1.4-3.1-2.8-4.6-4.2c-0.7-0.7-1.8,0.4-1.1,1.1
			c5.9,5.5,12,11.2,19.9,13.7c4.1,1.2,8.2,1.9,12.4,2.2c4.5,0.5,9,0.8,13.5,0.7c7.5-0.3,14.7-2.7,20.9-7c3-2,5.8-4.4,8.2-7.1
			c2.5-2.7,4.3-5.9,6.7-8.6c1.2-1.3,2.7-2.6,4.6-2.6c1.6-0.1,3.1,0.7,3.9,2.1c0.5,1.3-0.1,2.7-1.4,3.3c-0.1,0-0.1,0.1-0.2,0.1
			c-1.4,0.5-2.9,0.5-4.4,0.1c-3.5-0.9-6.7-3.6-9.2-6c-2.7-2.6-5.2-5.6-7.8-8.3c-5-5.2-11.8-10.4-19.4-9.3c-2,0.4-4,1-6,1.6
			c-2.2,0.6-4.4,0.7-6.6,0.3c-4-0.6-7.7-2-11.7-2.4c-13.2-1-19.1,13.2-28.7,19.4c-1.2,0.8-2.5,1.5-3.9,2c-0.4,0.1-0.6,0.5-0.5,0.9
			c0.1,0.3,0.4,0.5,0.7,0.5c2.6,0,3.5-3.5,1.8-5.1c-2.1-2-5.5-0.8-7,1.3c-1.7,2.2-1.6,5.4,0.2,7.5c2,2.1,5.1,2.5,7.6,1
			c0.8-0.5,0.1-1.8-0.8-1.3H1312.1z"/>
		<path d="M1313.4,899.7c11.6,3.8,22.3-4.1,33.3-6.5c11-2.4,21.9,1.4,32.3,4.4c5.9,1.9,11.9,3.1,18.1,3.6c1,0,1-1.4,0-1.5
			c-11-0.6-21.3-5-32-7.3c-5.1-1.2-10.4-1.5-15.6-1c-5.6,0.7-10.8,3-16.1,5c-6.2,2.3-13,4.3-19.6,2.1c-0.9-0.3-1.3,1.1-0.4,1.4
			V899.7z"/>
		<path d="M1338.6,897.1c3.2-0.6,6.1,1.8,8.9,2.8c3,0.9,6.1,1.4,9.2,1.3c6.2,0,12.4-1.4,18-4.2c0.9-0.4,0.1-1.7-0.8-1.3
			c-5.7,2.8-12.1,4.2-18.5,3.9c-3.2,0-6.4-0.7-9.4-2.1c-2.5-1.2-4.9-2.5-7.8-1.9C1337.3,895.8,1337.7,897.3,1338.6,897.1
			L1338.6,897.1z"/>
		<path d="M1329.1,890c0-2.1,2.5-3.8,4.1-4.9c1.8-1.2,3.9-2.1,6.1-2.5c1.1-0.3,2.3-0.1,3.3,0.5c0.8,0.5,1.2,1.4,1.1,2.3
			c-0.1,0.5-0.8,0.6-1.2,0.8c-0.6,0.2-1.2,0.5-1.8,0.7c-1.2,0.4-2.3,0.8-3.5,1.1c-2.7,0.7-5.5,1.2-8.3,1.4l0.7,0.6l-0.5-1.2
			c-0.3-0.9-1.8-0.5-1.4,0.4l0.5,1.2c0.1,0.3,0.4,0.5,0.7,0.5c3.1-0.2,6.1-0.7,9.1-1.5c1.5-0.4,3-0.9,4.4-1.5
			c0.7-0.2,1.3-0.5,1.9-0.8c0.5-0.3,0.8-0.9,0.8-1.4c0.3-2.5-2-4.3-4.3-4.5c-2.7-0.2-5.6,1-7.8,2.3c-2.3,1.3-5.5,3.6-5.5,6.6
			c0,0.4,0.3,0.8,0.8,0.8S1329.1,890.4,1329.1,890L1329.1,890z"/>
		<path d="M1362.5,917.8c6,0.3,11.9-1.3,16.9-4.6c2.2-1.5,4.6-3.2,5.5-5.8c0.9-2.2,0.1-4.8-1.8-6.1c-2.1-1.4-4.9-1.6-7.3-1.4
			c-3,0.3-5.9,1.2-8.4,2.7c-2.6,1.5-4.9,3.3-7.6,4.6c-2.3,1.1-5.2,1.2-7.2,2.8c-1.7,1.3-1.9,3.7-0.7,5.3c0.2,0.2,0.4,0.5,0.7,0.7
			c2.7,2.4,6.7,1,9.8,2c0.9,0.3,1.3-1.2,0.4-1.5c-2.5-0.8-5.1-0.1-7.6-0.8c-1.3-0.3-2.3-1.2-2.6-2.5c-0.2-1.3,0.8-2.2,1.9-2.6
			c1.8-0.8,3.8-1,5.7-1.9c2.1-1.1,4.1-2.3,6-3.7c4.1-2.6,9.1-4.7,14.1-3.4c2.4,0.7,4.2,2.6,3.3,5.2c-0.8,2.4-3.2,4-5.2,5.3
			c-4.7,3-10.2,4.4-15.8,4.2C1361.4,916.2,1361.4,917.7,1362.5,917.8L1362.5,917.8z"/>
		<path d="M1302.7,827.5c8.8,0,18.4-6.2,17.2-16.1c-0.3-4-2.9-7.5-6.6-9.2c-2.7-1.1-5.7-1.1-8.5-1.2l-9.6-0.4
			c-6.6-0.3-13.1-0.6-19.7-0.8c-3.2-0.1-6.4-0.2-9.6-0.1c-2.7,0-5.3,0.4-7.8,1.3c-4,1.6-7.4,5.6-6.4,10.1c1.1,5.1,7.8,6,12,7.2
			c7.1,2,14.2,4.1,21.3,6.1c6.8,2,13.8,3.8,21,2.9c0.9-0.1,1-1.6,0-1.5c-5.7,0.7-11.3-0.3-16.9-1.8c-5.5-1.5-11.2-3.2-16.9-4.8
			l-8.4-2.4c-2.5-0.6-5-1.4-7.4-2.4c-2.1-1-3.6-2.8-3.4-5.2c0.2-2.2,1.3-4.2,3-5.5c4-3.2,10-2.7,14.8-2.6c5.8,0.1,11.7,0.4,17.5,0.6
			l17.2,0.8c2.7,0.1,5.5,0.2,7.9,1.4c1.7,0.9,3,2.3,3.8,4c2,4,1.4,8.9-1.4,12.4c-3.2,3.9-8.3,5.7-13.2,5.7c-0.4,0-0.8,0.3-0.8,0.8
			S1302.3,827.5,1302.7,827.5L1302.7,827.5z"/>
		<path d="M1399.6,824.9c-4.6-3-10.7-7.5-10.1-13.8c0.6-6,7.1-9.4,12.3-10.7c7.4-1.8,15.1-1.5,22.6-2c7.4-0.5,14.8-1.5,22.1-3.1
			c3.7-0.8,7.3-1.8,10.9-2.8c3.3-1,6.5-2.3,9.8-3.2c2.4-0.7,6.1-1.2,7.5,1.5c0.8,1.5,0.6,3.3,0.6,4.9c0,2.1,0,4.3,0,6.4
			c0,3.6-0.3,6.9-2.9,9.6c-2.2,2.2-5,3.7-7.7,5.2c-6.4,3.6-13.1,6.6-20.1,9c-15,5-32.1,6.1-46.5-1.5c-0.8-0.4-1.6,0.8-0.8,1.3
			c13.5,7.1,29.4,6.9,43.8,2.8c7.6-2.3,14.9-5.3,21.9-9.1c5.8-3,12.7-6.2,13.6-13.5c0.2-2,0.2-4,0.2-6.1c0-2.1,0.1-4.1,0-6.2
			c-0.1-2.9-1.3-5.6-4.4-6.3c-2.8-0.6-5.7,0.3-8.3,1.3c-3.9,1.4-7.9,2.6-11.9,3.7c-8.1,2.1-16.3,3.6-24.6,4.3
			c-8.1,0.7-16.3,0.3-24.2,1.9c-5.8,1.1-12.4,3.9-14.8,9.7c-2.5,6.1,1.8,11.6,6.3,15.2c1.2,1,2.5,1.8,3.8,2.7
			C1399.7,826.8,1400.4,825.5,1399.6,824.9L1399.6,824.9z"/>
		<path d="M1319.7,736.9c4.5,0.6,8.9,1.9,13.1,3.8c1.6,0.8,3.4,1.9,4.2,3.5c0.9,1.9-0.1,3.7-1.8,4.6c-3.4,1.9-8.2,1.4-11.9,0.5
			c-4.1-1.1-8.1-2.7-11.9-4.6c-3.7-1.8-7.5-3.5-11.4-4.8c-3.7-1.2-7.5-2-11.4-2.4c-7.9-0.7-15.8,0.1-23.4,2.3
			c-8.7,2.6-16.9,6.7-24.1,12.2l1,1c4.7-8.8,14.5-12.8,23.6-15.4c17.7-4.9,36.3-5.4,54.1-1.2c0.9,0.2,1.3-1.2,0.4-1.4
			c-11.8-2.7-24-3.5-36.1-2.3c-5.9,0.6-11.8,1.6-17.5,3.2c-5,1.2-9.8,3-14.4,5.4c-4.8,2.5-8.8,6.3-11.5,11c-0.3,0.6,0.4,1.5,1,1
			c13.5-10.2,30.9-16.2,47.9-14.2c4.3,0.5,8.5,1.6,12.5,3.1c4.3,1.7,8.4,3.8,12.6,5.7c3.8,1.8,7.8,3,12,3.5c3.5,0.3,8,0.2,10.6-2.5
			c3-3.2,0.4-7-2.7-8.9c-2.1-1.2-4.4-2.1-6.7-2.8c-2.6-0.8-5.3-1.4-8-1.8c-1-0.1-1.3,1.3-0.4,1.5L1319.7,736.9z"/>
		<path d="M1319.3,736.2c0.8,0.1,1.5,0.3,2.2,0.6c0.3,0.1,0.7,0.3,1,0.4c0.3,0.2,0.7,0.3,1,0.5c0.4,0.2,0.8,0.1,1-0.3
			c0.2-0.4,0.1-0.8-0.3-1c-1.4-0.8-2.9-1.4-4.5-1.7c-0.4-0.1-0.8,0.1-0.9,0.5S1319,736.1,1319.3,736.2L1319.3,736.2z"/>
		<path d="M1275.5,772.1c-2.8-2.5,1-5.6,3.2-6.7c2.9-1.5,5.9-2.7,9.1-3.5c3.1-0.9,6.4-1.4,9.6-1.7c3.2-0.3,6.4-0.1,9.5,0.7
			c2.8,0.8,5.3,2.7,6.9,5.1c0.7,1.1,1.2,2.3,1.6,3.5c0.5,1.4,0.6,3,0.3,4.4c-0.5,1.4-3,1.7-4.3,2c-1.8,0.3-3.6,0.5-5.5,0.6
			c-3.4,0.1-6.9,0.1-10.3,0.1c-3.9,0-7.8-0.1-11.7-0.3c-3.4-0.2-7.7-0.9-8.8-4.7c-0.1-0.4-0.5-0.6-0.9-0.5s-0.6,0.5-0.5,0.9l0,0
			c0.9,3.2,4,5,7.1,5.5c4,0.7,8.3,0.5,12.4,0.6c4.2,0.1,8.5,0.1,12.8,0c1.9-0.1,3.8-0.3,5.7-0.6c1.5-0.3,3.5-0.6,4.7-1.6
			c2.2-1.9,0.9-6.4-0.1-8.6c-1.3-2.9-3.5-5.3-6.3-6.8c-3.3-1.7-7-2-10.6-1.8c-3.9,0.1-7.8,0.7-11.6,1.7c-3.9,1.1-8.3,2.5-11.6,4.9
			c-2.4,1.8-4.2,5.5-1.5,7.9C1275.2,773.8,1276.3,772.7,1275.5,772.1L1275.5,772.1z"/>
		<path d="M1256.4,741.1c1.8-0.1,3.6,0,5.4,0.4c0.5,0.1,0.7-0.6,0.2-0.7c-1.8-0.4-3.7-0.6-5.6-0.4
			C1255.9,740.3,1255.9,741.1,1256.4,741.1z"/>
		<path d="M1263,738.4c1.4,0.2,2.9,0.6,4.2,1.2c0.4,0.2,0.8-0.4,0.4-0.6c-1.4-0.7-3-1.1-4.5-1.3c-0.2,0-0.4,0.2-0.4,0.3c0,0,0,0,0,0
			C1262.7,738.3,1262.8,738.4,1263,738.4z"/>
		<path d="M1268.5,736.5c4,0.4,8.1,1.1,12,2.1c0.5,0.1,0.7-0.6,0.2-0.7c-4-1-8.1-1.7-12.2-2.1
			C1268.1,735.7,1268.1,736.5,1268.5,736.5L1268.5,736.5z"/>
		<path d="M1290,738.1l-8.5-4.4c-0.4-0.2-0.8,0.4-0.4,0.7l8.5,4.4C1290.1,738.9,1290.5,738.3,1290,738.1z"/>
		<path d="M1312.3,745.4c0.7-1,0.7-2.4,0-3.4c-0.8-1.2-1.9-2.1-3.2-2.6c-2.7-1.4-5-3.6-6.5-6.3c-0.2-0.4-0.9,0-0.7,0.4
			c1.3,2.4,3.1,4.4,5.4,5.8c1.2,0.6,2.4,1.3,3.5,2.2c1,0.9,1.6,2.4,0.7,3.6C1311.3,745.5,1312,745.8,1312.3,745.4L1312.3,745.4z"/>
		<path d="M1315.6,746.2c-0.1-4-0.9-7.9-2.5-11.5c-0.2-0.4-0.8-0.1-0.7,0.4c1.6,3.5,2.4,7.3,2.4,11.1c0,0.2,0.2,0.3,0.4,0.3
			C1315.4,746.5,1315.6,746.4,1315.6,746.2L1315.6,746.2z"/>
		<path d="M1314.8,735.1l7.6,7.5c2.1,2.1,4.5,4.3,5,7.3c0.1,0.5,0.8,0.3,0.7-0.2c-0.6-3-2.7-5.2-4.8-7.3l-8.1-7.9
			C1314.9,734.3,1314.4,734.8,1314.8,735.1L1314.8,735.1z"/>
		<path d="M1332.4,750c0.7-5.2-1.9-10.3-6.5-12.6c-0.4-0.2-0.8,0.4-0.4,0.6c4.4,2.2,6.8,7,6.2,11.8
			C1331.6,750.2,1332.3,750.4,1332.4,750L1332.4,750z"/>
		<path d="M1265.1,774.2c6,5.1,12.4,10.6,20.2,12.5c4,0.9,8.1,0.9,12-0.1c4.4-1,8.6-2.7,13-3.7c5.3-1.2,10.7-1.6,16.1-1.3
			c1.4,0.1,1.4-2.2,0-2.2c-4.4-0.2-8.8,0-13.2,0.7c-4.4,0.8-8.7,1.9-12.9,3.4c-4,1.2-8.1,2.2-12.3,1.6c-3.8-0.7-7.5-2.1-10.8-4.2
			c-3.8-2.4-7.3-5.2-10.7-8.2C1265.6,771.7,1264,773.2,1265.1,774.2L1265.1,774.2z"/>
		<path d="M1258.6,776.3h8.8c0.4,0,0.8-0.3,0.8-0.8s-0.3-0.8-0.8-0.8h-8.8c-0.4,0-0.8,0.3-0.8,0.8S1258.2,776.3,1258.6,776.3z"/>
		<path d="M1260.6,781.1c3.1-2.2,7-2.9,10.7-1.9c0.4,0.1,0.8-0.2,0.9-0.6c0.1-0.4-0.1-0.7-0.5-0.8c-4-1.1-8.4-0.4-11.8,2
			C1259,780.3,1259.8,781.6,1260.6,781.1L1260.6,781.1z"/>
		<path d="M1268,786.9c2.6-1.1,4.8-2.8,6.4-5c0.2-0.4,0.1-0.8-0.3-1c-0.4-0.2-0.8-0.1-1,0.3c-1.4,1.9-3.3,3.4-5.5,4.3
			c-0.4,0.1-0.6,0.5-0.5,0.9C1267.2,786.8,1267.6,787,1268,786.9C1268,786.9,1268,786.9,1268,786.9L1268,786.9z"/>
		<path d="M1276.9,788.4c1.3-1.9,1.8-4.2,1.4-6.5c-0.1-0.4-0.5-0.6-0.9-0.5c-0.4,0.1-0.6,0.5-0.5,0.9c0.3,1.9-0.2,3.8-1.3,5.3
			c-0.2,0.4-0.1,0.8,0.3,1C1276.3,788.9,1276.7,788.7,1276.9,788.4L1276.9,788.4z"/>
		<path d="M1283.4,786c1,1.2,1.6,2.6,1.8,4.2c0,0.4,0.4,0.7,0.8,0.7c0.2,0,0.4-0.1,0.5-0.2c1.3-1.2,2.6-2.3,4-3.3
			c0.3-0.2,0.5-0.6,0.3-1c-0.2-0.3-0.6-0.5-1-0.3c-1.5,1.1-2.9,2.3-4.3,3.6l1.3,0.5c-0.2-1.9-1-3.7-2.2-5.2c-0.3-0.3-0.8-0.3-1.1,0
			C1283.1,785.3,1283.1,785.7,1283.4,786L1283.4,786z"/>
		<path d="M1292.8,787.5l1.4,5.2c0.1,0.4,0.5,0.6,0.9,0.5c0.4-0.1,0.6-0.5,0.5-0.9l0,0l-1.4-5.2c-0.1-0.4-0.5-0.6-0.9-0.5
			C1292.9,786.6,1292.7,787.1,1292.8,787.5z"/>
		<path d="M1297.2,789.9l4.1-4.4c0.3-0.3,0.3-0.8,0-1.1c-0.3-0.3-0.8-0.3-1.1,0l-4.1,4.4c-0.3,0.3-0.3,0.8,0,1.1
			C1296.4,790.2,1296.9,790.2,1297.2,789.9z"/>
		<path d="M1302.1,786.2l0.1,0.1c0.1,0-0.2-0.1,0,0c0.1,0,0.1,0.1,0.2,0.1c0.1,0.1,0.3,0.2,0.4,0.2l0.1,0.1c0.1,0.1-0.1-0.1,0,0
			l0.2,0.2c0.1,0.1,0.2,0.2,0.3,0.3l0.2,0.2c-0.2-0.2,0,0,0,0.1c0,0.1,0.2,0.3,0.2,0.4c0,0.1,0.1,0.1,0.1,0.2c0,0.1-0.1-0.2,0,0v0.1
			c0.1,0.2,0.1,0.3,0.2,0.5c0.1,0.4,0.5,0.6,0.9,0.5c0.4-0.1,0.6-0.5,0.5-0.9c-0.4-1.6-1.5-2.9-3.1-3.4c-0.4-0.1-0.8,0.1-0.9,0.5
			c0,0,0,0,0,0C1301.4,785.7,1301.6,786.2,1302.1,786.2L1302.1,786.2z"/>
		<path d="M1309.6,786.9c0.4,0,0.8-0.3,0.8-0.8s-0.3-0.8-0.8-0.8s-0.8,0.3-0.8,0.8S1309.2,786.9,1309.6,786.9z"/>
		<path d="M1310.4,786c-0.3-1.4-0.8-2.7-1.6-3.8c-0.2-0.4-0.6-0.5-1-0.3c-0.4,0.2-0.5,0.6-0.3,1c0,0,0,0.1,0,0.1
			c0.2,0.3,0.3,0.5,0.5,0.8c0.2,0.3,0.2,0.3,0.2,0.5l0.1,0.2l0,0v0.1c0.2,0.6,0.4,1.2,0.6,1.9c0.1,0.4,0.5,0.6,0.9,0.5
			C1310.2,786.8,1310.4,786.4,1310.4,786L1310.4,786z"/>
		<path d="M1309.7,782.5c0.8,1.5,2.2,2.7,3.8,3.2c0.4,0.1,0.8-0.1,1-0.4c0.1-0.4-0.1-0.8-0.4-1c0,0-0.1,0-0.1,0
			c-0.2-0.1-0.3-0.2-0.5-0.2c0.1,0,0.1,0.1,0,0h-0.1l-0.2-0.1c-0.2-0.1-0.3-0.2-0.5-0.3l-0.2-0.2c-0.1,0,0.1,0.1,0,0l-0.1-0.1
			c-0.1-0.1-0.3-0.2-0.4-0.4l-0.2-0.2c-0.1-0.1-0.1-0.1-0.2-0.2c0.1,0.1,0.1,0.1,0,0v-0.1l-0.1-0.1l-0.2-0.2
			c-0.1-0.2-0.2-0.3-0.3-0.5c-0.2-0.3-0.7-0.5-1-0.3C1309.6,781.7,1309.5,782.1,1309.7,782.5L1309.7,782.5z"/>
		<path d="M1266.8,773.3c-4.3-0.8-8.7-1-13.1-0.7c-2.5,0.2-8.2,0.1-7,4.1c1.2,3.2,3.1,6.1,5.7,8.5c2.5,2.4,5.3,4.4,8.5,5.8
			c7.3,3.4,15.6,4.2,23.6,3.8c7.5-0.4,15-2,22-4.7c7-2.6,13.5-6.3,19.4-10.9c1.5-1.2,3-2.4,4.4-3.7c1.3-1,2.3-2.4,3-3.9
			c1.3-3.4-1.7-6.5-3.9-8.7c-11.5-11.5-28.3-14.7-43.9-14.3c-4.3,0-8.6,0.3-12.9,0.9c-3.7,0.5-7.4,1.5-10.3,4
			c-2.6,2.1-4.2,5.2-4.1,8.6c0.2,3.3,2,6.2,4.2,8.6c1.2,1.3,2.5,2.6,3.9,3.8c0.7,0.6,1.8-0.4,1.1-1.1c-4.6-4-10.4-10.1-6.2-16.4
			c4.2-6.3,13.3-6.4,20-6.7c14.5-0.8,29.9,0.8,42.1,9.5c2.7,1.9,5.2,4.1,7.3,6.7c1.2,1.5,2.1,3.3,1.2,5.2c-0.9,1.5-2.2,2.8-3.6,3.9
			c-5,4.4-10.5,8.1-16.5,10.9c-12.3,5.9-27.1,8.7-40.7,6.2c-7.5-1.4-14.7-4.8-19.5-10.9c-1.1-1.3-2-2.8-2.7-4.3
			c-0.2-0.4-0.4-0.8-0.5-1.3c-0.2-1,0.3-1.3,1.2-1.5c1.1-0.2,2.3-0.4,3.4-0.5c4.6-0.5,9.2-0.3,13.7,0.5
			C1267.3,774.9,1267.7,773.5,1266.8,773.3L1266.8,773.3z"/>
		<path d="M1398.3,780c4.5,0.5,8.5,2.9,12.7,4.4c3.9,1.4,8,2.3,12.1,2.7c8.2,0.8,16.5-1.4,23.3-6.1c4-2.8,8.8-6.4,13.9-4.6
			c1.4,0.5,2-1.7,0.6-2.2c-4.2-1.5-8.6,0.2-12.2,2.5c-3.6,2.3-7.1,5.1-11.3,6.5c-8,2.8-16.9,2-24.9-0.6c-4.8-1.6-9.2-4.2-14.2-4.8
			C1396.9,777.6,1396.9,779.9,1398.3,780L1398.3,780z"/>
		<path d="M1395.6,782.3c0.3-0.3,0.6-0.5,1-0.7c0.4-0.2,0.8-0.5,1.2-0.7c0.4-0.2,0.7-0.3,1.1-0.5c0.4-0.1,0.9-0.3,1.3-0.3
			c0.4-0.1,0.6-0.5,0.5-0.9s-0.5-0.6-0.9-0.5l0,0c-1.9,0.5-3.7,1.4-5.2,2.6c-0.3,0.3-0.3,0.8,0,1.1S1395.3,782.6,1395.6,782.3
			L1395.6,782.3z"/>
		<path d="M1399,784.7c1.4-1.7,3.2-3,5.3-3.7c0.4-0.1,0.6-0.5,0.5-0.9s-0.5-0.6-0.9-0.5c-2.4,0.8-4.4,2.2-6,4.1
			c-0.3,0.3-0.3,0.8,0,1.1C1398.3,785,1398.7,785,1399,784.7z"/>
		<path d="M1406.4,788c1.8-1,3.2-2.6,3.9-4.6c0.1-0.4-0.1-0.8-0.5-0.9c-0.4-0.1-0.8,0.1-0.9,0.5l-0.1,0.3l-0.1,0.2c0.1-0.2,0,0,0,0
			c-0.1,0.2-0.2,0.4-0.3,0.6c-0.1,0.2-0.2,0.4-0.4,0.6l-0.1,0.1l0,0l-0.2,0.3c-0.3,0.3-0.6,0.7-1,0.9l0,0l-0.2,0.1l-0.3,0.2
			c-0.2,0.1-0.4,0.2-0.6,0.4c-0.3,0.2-0.5,0.6-0.3,1C1405.6,788,1406,788.1,1406.4,788L1406.4,788z"/>
		<path d="M1414.1,790.5c0.5-2.6-0.1-5.3-1.6-7.5c-0.2-0.3-0.6-0.5-1-0.3c-0.3,0.2-0.5,0.6-0.3,1c1.3,1.8,1.8,4.1,1.5,6.3
			c-0.1,0.4,0.1,0.8,0.5,0.9C1413.6,791.1,1414,790.9,1414.1,790.5L1414.1,790.5z"/>
		<path d="M1422.3,791.4c1-1.8,2.1-4.2,0.9-6.1c-0.2-0.3-0.6-0.5-1-0.3c-0.3,0.2-0.5,0.6-0.3,1c0.2,0.3,0.3,0.6,0.4,1
			c0,0.4,0,0.8-0.1,1.2c-0.2,0.9-0.6,1.7-1.1,2.4c-0.2,0.4-0.1,0.8,0.3,1C1421.7,791.9,1422.2,791.8,1422.3,791.4L1422.3,791.4z"/>
		<path d="M1426.2,787.4c1.3,1,2.3,2.3,3,3.8c0.2,0.4,0.7,0.5,1,0.2c0.2-0.1,0.3-0.4,0.4-0.6c0-0.4,0-0.7,0.2-1.1
			c0.2-0.4,0.4-0.7,0.7-1c0.6-0.7,1.3-1.2,2.1-1.7c0.4-0.2,0.5-0.7,0.3-1c-0.2-0.4-0.7-0.5-1-0.3c-1.7,1.1-3.8,2.7-3.7,5l1.4-0.4
			c-0.8-1.6-1.9-3-3.2-4.1c-0.3-0.3-0.8-0.3-1.1,0C1425.9,786.6,1425.9,787,1426.2,787.4L1426.2,787.4z"/>
		<path d="M1435.8,787C1435.8,787,1436,787.1,1435.8,787l0.2,0.1l0.3,0.1c0.2,0.1,0.3,0.2,0.5,0.3c0.1,0,0.2,0.1,0.3,0.2
			c-0.1-0.1-0.1-0.1,0,0l0.1,0.1c0.2,0.1,0.3,0.3,0.4,0.4c0.1,0.1,0.3,0.3,0.4,0.4c-0.1-0.2,0,0,0,0l0.1,0.1l0.2,0.3
			c0.1,0.2,0.2,0.3,0.3,0.5l0.1,0.2c0.1,0.2-0.1-0.2,0,0l0.1,0.3c0.1,0.4,0.5,0.6,0.9,0.5c0.4-0.1,0.6-0.5,0.5-0.9l0,0
			c-0.6-1.9-2.1-3.3-3.9-4.1c-0.4-0.1-0.8,0.1-0.9,0.5C1435.2,786.5,1435.4,786.9,1435.8,787L1435.8,787z"/>
		<path d="M1444.2,787.4c0.1-1.9-0.7-3.7-2-5.1c-0.3-0.3-0.8-0.3-1.1,0c-0.3,0.3-0.3,0.8,0,1.1c0.1,0.1,0.3,0.3,0.4,0.4l0.1,0.1
			c0.2,0.2,0,0,0,0.1c0.1,0.1,0.1,0.2,0.2,0.2c0.1,0.2,0.2,0.3,0.3,0.5c0,0.1,0.1,0.2,0.1,0.3l0.1,0.1c0.1,0.1-0.1-0.2,0,0.1
			c0.1,0.4,0.2,0.7,0.3,1.1c0,0,0,0.3,0,0.2c0,0.1,0,0.2,0,0.3c0,0.2,0,0.4,0,0.6c0,0.4,0.3,0.8,0.8,0.8S1444.1,787.8,1444.2,787.4
			L1444.2,787.4z"/>
		<path d="M1443.4,783.4h0.4h0.2l0,0c0.2,0,0.5,0.1,0.7,0.1c0.2,0,0.5,0.1,0.7,0.2c0.2,0.1,0.4,0.1,0.6,0.2l0.3,0.2l0.1,0.1
			c0.1,0.1,0,0,0,0c0.2,0.1,0.3,0.3,0.4,0.4c0.1,0.1-0.1-0.1,0,0l0.1,0.1l0.2,0.3c0,0.1,0-0.1,0,0l0.1,0.2v0.1c0,0,0,0.2,0,0.1
			c0,0.4,0.3,0.7,0.8,0.8c0.4,0,0.8-0.3,0.8-0.8c-0.2-1.1-0.8-2.2-1.8-2.7c-1.1-0.5-2.3-0.8-3.5-0.9c-0.4,0-0.8,0.3-0.8,0.8
			c0,0.4,0.3,0.7,0.8,0.8L1443.4,783.4z"/>
		<path d="M1450.9,784.1c0.7-2.1,0.2-4.4-1.5-5.8l-0.7,1.2c2,0.5,3.9,1.4,5.6,2.6c0.4,0.2,0.8,0.1,1-0.3c0.2-0.4,0.1-0.8-0.3-1
			c-1.8-1.2-3.8-2.1-5.9-2.7c-0.7-0.2-1.3,0.8-0.7,1.3c1.3,1.1,1.7,2.8,1.1,4.4c-0.1,0.4,0.1,0.8,0.5,0.9
			C1450.4,784.7,1450.8,784.5,1450.9,784.1L1450.9,784.1z"/>
		<path d="M1454.9,776.8v1.9c0,0.2,0.1,0.4,0.2,0.5c0.1,0.1,0.3,0.2,0.5,0.2c0.4,0,0.7-0.3,0.8-0.8v-1.9c0-0.2-0.1-0.4-0.2-0.5
			c-0.3-0.3-0.8-0.3-1.1,0C1455,776.4,1454.9,776.6,1454.9,776.8z"/>
		<path d="M1461.7,762.1c-10.8,1-21.7-0.4-32.5-0.2c-4.9,0-9.9,0.6-14.7,1.7c-2.3,0.5-4.5,1.3-6.7,2.2c-2.1,0.8-4,1.9-5.7,3.3
			c-2.4,2.3-3.5,6.8-0.4,9c1.7,1.2,3.8,0.9,5.8,1c2.5,0.2,5,0.9,7.2,1.9c4.4,1.8,8.7,3.6,13.5,3.9c4.7,0.3,9.4-0.5,13.7-2.3
			c5.3-2.2,9.8-6,14.4-9.4c3-2.2,9.4-6.2,6.1-10.7c-0.6-0.8-1.9,0-1.3,0.8c1.4,2,0.1,4.2-1.4,5.6c-1.8,1.5-3.7,2.9-5.7,4.2
			c-3.7,2.7-7.3,5.5-11.3,7.5c-3.9,1.9-8.2,2.9-12.6,2.9c-4.4-0.1-8.8-1.1-12.8-3c-1.9-0.9-3.9-1.6-5.8-2.2
			c-1.9-0.5-3.8-0.7-5.8-0.7c-2.2,0-4.1-0.7-4.4-3.1c-0.1-1.9,0.8-3.8,2.4-4.9c3.3-2.7,8.1-4,12.2-4.9c4.3-0.9,8.8-1.4,13.2-1.4
			c10.8-0.2,21.7,1.2,32.5,0.2C1462.7,763.5,1462.7,762,1461.7,762.1L1461.7,762.1z"/>
		<path d="M1456.4,773.3c-0.4-3.8,2-7.2,2.1-11c0-3.3-1.4-6.4-3.7-8.7c-5.2-5.6-13.5-6.1-20.7-6c-7.9,0-15.8,1.1-23.4,3.3
			c-3.7,1.1-7.3,2.6-10.7,4.5c-3.1,1.7-6.4,3.6-8.2,6.7c-3.1,5.4-1.3,12.3,4.1,15.5c1.2,0.7,2.5,1.2,3.8,1.4c1,0.1,1.3-1.3,0.4-1.5
			c-5.4-0.8-9.1-5.8-8.3-11.1c0.2-1.4,0.7-2.7,1.4-3.9c1.9-2.8,5.1-4.6,8.1-6.1c3.1-1.6,6.4-3,9.8-4c6.8-2,13.8-3.1,20.8-3.3
			c6.6-0.2,14.5-0.3,20,3.9c2.8,2.1,5,5.5,5,9.1c0,3.9-2.5,7.3-2.1,11.2C1454.9,774.3,1456.4,774.4,1456.4,773.3L1456.4,773.3z"/>
		<path d="M1434.7,734.2c13.7,0.7,29.2,3.6,37.4,15.8l1-1c-7.9-6-17.1-10-26.9-11.6c-5.4-0.8-10.8-1-16.3-0.9
			c-2.6,0-5.1,0.2-7.6,0.7c-2.5,0.6-5,1.6-7.2,2.8c-5,2.5-9.9,4.9-15,7.1c-2.6,1.1-5.2,2.1-7.8,3s-5.4,1.8-8.2,1.1
			c-2.1-0.5-3.7-2.1-4.3-4.2c-0.6-2.6,1.6-4,3.7-4.8c5-1.9,10-3.5,15.2-4.7c12-2.9,24.4-4.2,36.8-3.7c1,0,1-1.5,0-1.5
			c-11.4-0.4-22.8,0.6-34,3c-5.6,1.2-11.1,2.8-16.6,4.7c-2,0.7-4.3,1.4-5.7,3.1c-1.1,1.4-1.4,3.3-0.7,5c1.7,4.5,6.6,5.3,10.8,4.4
			c2.8-0.7,5.5-1.7,8.2-2.8c2.6-1,5.1-2.1,7.6-3.3c2.8-1.3,5.5-2.6,8.2-3.9c2.5-1.3,5-2.5,7.6-3.4c2.8-0.8,5.8-1.1,8.7-1.1
			c3,0,5.9-0.1,8.9,0.1c12.2,0.5,24,4.8,33.8,12.2c0.6,0.5,1.4-0.4,1-1c-8.6-12.7-24.5-15.8-38.7-16.6
			C1433.7,732.6,1433.7,734.1,1434.7,734.2L1434.7,734.2z"/>
		<path d="M1433.4,731.5c-0.2,0.9,0,1.9,0.6,2.6l0.7-1.2c-2.1-0.5-4.3-0.7-6.5-0.6c-0.4,0-0.8,0.3-0.8,0.8s0.3,0.8,0.8,0.8
			c2-0.2,4.1,0,6.1,0.5c0.3,0.1,0.7-0.1,0.8-0.3c0.2-0.3,0.1-0.7-0.1-0.9c-0.2-0.3-0.3-0.8-0.2-1.1c0.1-0.4-0.2-0.8-0.6-0.9
			C1433.9,731,1433.6,731.2,1433.4,731.5L1433.4,731.5z"/>
		<path d="M1383,750.1c-0.8-2.3-1.2-4.7-1.3-7.2l-0.6,0.3c0.1,0.1,0.1,0.2,0.1,0.3c-0.1,0.5,0.6,0.7,0.7,0.2
			c0.1-0.4-0.1-0.9-0.4-1.1c-0.2-0.1-0.4,0-0.5,0.2c0,0.1,0,0.1,0,0.2c0.1,2.5,0.5,5,1.3,7.4C1382.4,750.7,1383.1,750.5,1383,750.1
			L1383,750.1z"/>
		<path d="M1385.4,751.3c-0.1-1.4,0.4-2.9,1.3-4c0.7-1.2,1.6-2.3,2.6-3.3c0.9-0.9,1.8-1.7,2.8-2.6c0.9-0.7,1.5-1.7,1.9-2.8
			c0.1-0.2-0.1-0.4-0.3-0.5c-0.2-0.1-0.4,0.1-0.5,0.3l0,0c-0.4,1.2-1.2,2.3-2.3,3c-1,0.9-2,1.8-2.9,2.9c-0.9,1-1.6,2.1-2.3,3.2
			c-0.7,1.1-1.1,2.5-1,3.8C1384.7,751.8,1385.5,751.8,1385.4,751.3L1385.4,751.3z"/>
		<path d="M1388.8,752.1c0.4-3.8,4.8-6.2,7.6-8.2c2.4-1.8,6.5-3.9,6.2-7.5c0-0.5-0.8-0.5-0.8,0c0.1,1.9-1.2,3.3-2.6,4.4
			c-1.7,1.4-3.5,2.6-5.3,3.9c-2.6,1.9-5.5,4-5.9,7.4C1388,752.6,1388.7,752.6,1388.8,752.1L1388.8,752.1z"/>
		<path d="M1401.3,746.8c0.1-2.6,1.9-4.6,3.7-6.3c2.2-2,4.5-3.8,6.8-5.8c0.4-0.3-0.2-0.8-0.5-0.5c-2.4,2-4.9,4-7.2,6.2
			c-1.8,1.7-3.4,3.8-3.5,6.4C1400.5,747.3,1401.2,747.3,1401.3,746.8z"/>
		<path d="M1411.7,742.2l8.7-8c0.4-0.3-0.2-0.9-0.5-0.5l-8.7,8C1410.9,742,1411.4,742.5,1411.7,742.2z"/>
		<path d="M1425.4,737c1.1-1.2,2-2.6,2.5-4.2c0.2-0.4-0.6-0.6-0.7-0.2c-0.5,1.4-1.3,2.7-2.3,3.8
			C1424.5,736.8,1425.1,737.3,1425.4,737z"/>
		<path d="M1429,737.5c1.5-0.6,2.9-1.2,4.4-1.9c1-0.4,2.1-1.1,2.2-2.3c0.1-0.5-0.7-0.5-0.8,0c-0.1,1-1.4,1.5-2.2,1.8l-4,1.7
			C1428.2,737,1428.5,737.6,1429,737.5L1429,737.5z"/>
		<path d="M1435.7,737.2c3.9-0.3,7.8-0.8,11.8-1.5c0.5-0.1,0.3-0.8-0.2-0.7c-3.8,0.7-7.7,1.2-11.6,1.5
			C1435.3,736.4,1435.2,737.2,1435.7,737.2z"/>
		<path d="M1448.3,737.7c1.8-0.3,3.5-0.8,5.1-1.5c0.2-0.1,0.2-0.3,0.1-0.5c0,0,0,0,0,0c-0.1-0.2-0.3-0.2-0.5-0.1
			c-1.6,0.7-3.2,1.2-4.9,1.5c-0.2,0.1-0.3,0.3-0.3,0.5c0,0,0,0,0,0C1447.9,737.7,1448.1,737.8,1448.3,737.7L1448.3,737.7z"/>
		<path d="M1450.8,739.3c2.2,0,4.4-0.3,6.4-1c0.5-0.2,0.3-0.9-0.2-0.7c-2,0.6-4.1,1-6.2,1c-0.2,0-0.3,0.2-0.3,0.4
			C1450.6,739.1,1450.7,739.2,1450.8,739.3L1450.8,739.3z"/>
		<path d="M1458.5,740.8c2.1,0,4.1,0.5,5.9,1.5c0.4,0.2,0.8-0.4,0.4-0.7c-1.9-1.1-4.1-1.7-6.3-1.6c-0.2,0-0.3,0.2-0.3,0.4
			C1458.3,740.7,1458.4,740.8,1458.5,740.8z"/>
	</g>
</g>
<path d="M922.6,1.5c0.4,0,0.8-0.3,0.8-0.8S923,0,922.6,0l0,0c-0.4,0-0.8,0.3-0.8,0.8S922.2,1.5,922.6,1.5z"/>
</svg>
