<svg xmlns="http://www.w3.org/2000/svg" xmlns:xlink="http://www.w3.org/1999/xlink" width="260" height="260" viewBox="0 0 260 260">
  <defs>
    <clipPath id="clip-Web_1920_1">
      <rect width="260" height="260"/>
    </clipPath>
  </defs>
  <g id="Web_1920_1" data-name="Web 1920 – 1" clip-path="url(#clip-Web_1920_1)">
    <rect width="260" height="260" fill="#fff"/>
    <g id="Ellipse_1" data-name="Ellipse 1" transform="translate(9 13)" fill="#be8c8c" stroke="#c7a6a6" stroke-width="1">
      <circle cx="117" cy="117" r="117" stroke="none"/>
      <circle cx="117" cy="117" r="116.5" fill="none"/>
    </g>
    <path id="Path_7" data-name="Path 7" d="M183.711,48.671c26.312.431,14.846,7.008,38.02,31.482s5.391,16.234,12.5,42.863-2.047,19.211-12.5,34.271,14.892,33.27-7.742,40.489-17.12,5.868-20.028,15.788-25.6,24.785-38.613,17.68-6.842,4.664-28.457,8.965c-23.156,19.563-35.271-14.858-37.9-15.863-9.106-3.462-21.78-5.25-38.641-10.781-21.076-6.914-5.176-21.391-19.551-26.824s-5.58-41.184-5.58-41.184S5.688,113.618,20.156,96.34s28.994.209,25.535-31.266S95.457,38.66,95.457,38.66" transform="translate(1 -4)" fill="#ffc6f0" stroke="#f5b9ee" stroke-width="2"/>
    <path id="Path_8" data-name="Path 8" d="M177.211,50.965" fill="none" stroke="#707070" stroke-width="1"/>
    <path id="Path_9" data-name="Path 9" d="M94.07,37.969c7.315-11.008,64.882-40.473,91.871,10.125" transform="translate(0.805 -2)" fill="#ffc6f0" stroke="#f5b9ee" stroke-width="2"/>
    <g id="Ellipse_2" data-name="Ellipse 2" transform="translate(69.34 99.19) rotate(-16)" fill="#fff" stroke="#f5b9ee" stroke-width="1">
      <circle cx="45.5" cy="45.5" r="45.5" stroke="none"/>
      <circle cx="45.5" cy="45.5" r="45" fill="none"/>
    </g>
    <g id="Rectangle_4" data-name="Rectangle 4" transform="translate(168.518 193.524) rotate(-49)" fill="#6a3b3b" stroke="#844650" stroke-width="1">
      <rect width="22" height="5" stroke="none"/>
      <rect x="0.5" y="0.5" width="21" height="4" fill="none"/>
    </g>
    <g id="Rectangle_1" data-name="Rectangle 1" transform="translate(187 138)" fill="#f50ea5" stroke="#f03bdb" stroke-width="1">
      <rect width="21" height="5" stroke="none"/>
      <rect x="0.5" y="0.5" width="20" height="4" fill="none"/>
    </g>
    <g id="Rectangle_5" data-name="Rectangle 5" transform="translate(179.85 70.582) rotate(-151)" fill="#6a3b3b" stroke="#844650" stroke-width="1">
      <rect width="22" height="5" stroke="none"/>
      <rect x="0.5" y="0.5" width="21" height="4" fill="none"/>
    </g>
    <g id="Rectangle_6" data-name="Rectangle 6" transform="matrix(0.695, -0.719, 0.719, 0.695, 116.772, 51.464)" fill="#f50ea5" stroke="#f03bdb" stroke-width="1">
      <rect width="21" height="5" stroke="none"/>
      <rect x="0.5" y="0.5" width="20" height="4" fill="none"/>
    </g>
    <g id="Rectangle_7" data-name="Rectangle 7" transform="translate(70.465 59.197) rotate(39)" fill="#6a3b3b" stroke="#844650" stroke-width="1">
      <rect width="22" height="5" stroke="none"/>
      <rect x="0.5" y="0.5" width="21" height="4" fill="none"/>
    </g>
    <g id="Rectangle_8" data-name="Rectangle 8" transform="matrix(0.848, 0.53, -0.53, 0.848, 54.92, 161.816)" fill="#f50ea5" stroke="#f03bdb" stroke-width="1">
      <rect width="21" height="5" stroke="none"/>
      <rect x="0.5" y="0.5" width="20" height="4" fill="none"/>
    </g>
    <g id="Rectangle_3" data-name="Rectangle 3" transform="matrix(0.875, -0.485, 0.485, 0.875, 178.494, 101.045)" fill="#4906fd" stroke="#3a32fa" stroke-width="1">
      <rect width="19" height="5" stroke="none"/>
      <rect x="0.5" y="0.5" width="18" height="4" fill="none"/>
    </g>
    <g id="Rectangle_9" data-name="Rectangle 9" transform="translate(95.362 205.276) rotate(-43)" fill="#4906fd" stroke="#3a32fa" stroke-width="1">
      <rect width="19" height="5" stroke="none"/>
      <rect x="0.5" y="0.5" width="18" height="4" fill="none"/>
    </g>
    <g id="Rectangle_10" data-name="Rectangle 10" transform="translate(47.692 130.359) rotate(-97)" fill="#4906fd" stroke="#3a32fa" stroke-width="1">
      <rect width="19" height="5" stroke="none"/>
      <rect x="0.5" y="0.5" width="18" height="4" fill="none"/>
    </g>
    <circle id="Ellipse_3" data-name="Ellipse 3" cx="117" cy="117" r="117" transform="translate(9 13)" fill="#be8c8c"/>
    <path id="Path_10" data-name="Path 10" d="M183.711,48.671c26.312.431,14.846,7.008,38.02,31.482s5.391,16.234,12.5,42.863-2.047,19.211-12.5,34.271,14.892,33.27-7.742,40.489-17.12,5.868-20.028,15.788-25.6,24.785-38.613,17.68-6.842,4.664-28.457,8.965c-23.156,19.563-35.271-14.858-37.9-15.863-9.106-3.462-21.78-5.25-38.641-10.781-21.076-6.914-5.176-21.391-19.551-26.824s-5.58-41.184-5.58-41.184S5.688,113.618,20.156,96.34s28.994.209,25.535-31.266S95.457,38.66,95.457,38.66" transform="translate(1 -4)" fill="#ffc6f0"/>
    <path id="Path_11" data-name="Path 11" d="M177.211,50.965" fill="none" stroke="#707070" stroke-width="1"/>
    <path id="Path_12" data-name="Path 12" d="M94.07,37.969c7.315-11.008,64.882-40.473,91.871,10.125" transform="translate(0.805 -2)" fill="#ffc6f0"/>
    <g id="Ellipse_4" data-name="Ellipse 4" transform="translate(69.34 99.19) rotate(-16)" fill="#fff" stroke="#f5b9ee" stroke-width="1">
      <circle cx="45.5" cy="45.5" r="45.5" stroke="none"/>
      <circle cx="45.5" cy="45.5" r="45" fill="none"/>
    </g>
    <rect id="Rectangle_11" data-name="Rectangle 11" width="2" height="13" transform="translate(76 68)" fill="#522707"/>
    <rect id="Rectangle_12" data-name="Rectangle 12" width="2" height="13" transform="matrix(0.174, 0.985, -0.985, 0.174, 136.228, 57.386)" fill="#522707"/>
    <rect id="Rectangle_13" data-name="Rectangle 13" width="2" height="13" transform="matrix(-0.454, 0.891, -0.891, -0.454, 195.246, 163.56)" fill="#522707"/>
    <rect id="Rectangle_14" data-name="Rectangle 14" width="2" height="13" transform="translate(192.337 90.556) rotate(50)" fill="#522707"/>
    <rect id="Rectangle_15" data-name="Rectangle 15" width="2" height="13" transform="matrix(-0.454, 0.891, -0.891, -0.454, 61.246, 120.56)" fill="#522707"/>
    <rect id="Rectangle_16" data-name="Rectangle 16" width="2" height="13" transform="translate(93.339 200.939) rotate(177)" fill="#522707"/>
    <rect id="Rectangle_17" data-name="Rectangle 17" width="2" height="13" transform="translate(212.512 132.058) rotate(-167)" fill="#522707"/>
    <rect id="Rectangle_18" data-name="Rectangle 18" width="2" height="13" transform="translate(59.512 159.058) rotate(-167)" fill="#522707"/>
    <rect id="Rectangle_19" data-name="Rectangle 19" width="2" height="13" transform="matrix(0.174, 0.985, -0.985, 0.174, 158.228, 188.386)" fill="#522707"/>
  </g>
</svg>
