<svg id="baseline-local_grocery_store-24px" xmlns="http://www.w3.org/2000/svg" width="197.734" height="226.367" viewBox="0 0 197.734 226.367">
  <path id="Path_1874" data-name="Path 1874" d="M59.12,179.894c-10.655,0-19.277,10.007-19.277,22.237s8.621,22.237,19.277,22.237,19.373-10.007,19.373-22.237S69.776,179.894,59.12,179.894ZM1,2V24.237H20.373l34.872,84.388-13.077,27.24a24.013,24.013,0,0,0-2.422,10.674c0,12.23,8.718,22.237,19.373,22.237H175.361V146.539H63.189a2.594,2.594,0,0,1-2.422-2.78l.291-1.334L69.776,124.3h72.166c7.265,0,13.658-4.559,16.952-11.452l34.678-72.158a12.157,12.157,0,0,0,1.162-5.337c0-6.115-4.359-11.118-9.687-11.118H41.781L32.676,2H1ZM155.987,179.894c-10.655,0-19.277,10.007-19.277,22.237s8.621,22.237,19.277,22.237,19.373-10.007,19.373-22.237S166.643,179.894,155.987,179.894Z" transform="translate(0 0)" fill="#ebdcc1"/>
  <path id="Path_1875" data-name="Path 1875" d="M0,0H197.734V226.367H0Z" fill="none"/>
</svg>
