<svg id="baseline-local_grocery_store-24px" xmlns="http://www.w3.org/2000/svg" width="212.699" height="236.363" viewBox="0 0 212.699 236.363">
  <path id="Path_1874" data-name="Path 1874" d="M63.61,187.891c-11.478,0-20.766,10.456-20.766,23.236s9.287,23.236,20.766,23.236,20.87-10.456,20.87-23.236S75.088,187.891,63.61,187.891ZM1,2V25.236H21.87l37.566,88.182L45.349,141.883a24.473,24.473,0,0,0-2.609,11.153c0,12.78,9.391,23.236,20.87,23.236H188.829V153.036H67.992a2.742,2.742,0,0,1-2.609-2.9l.313-1.394L75.088,129.8h77.74c7.826,0,14.713-4.763,18.261-11.967l37.357-75.4a12.385,12.385,0,0,0,1.252-5.577c0-6.39-4.7-11.618-10.435-11.618H44.931L35.122,2H1ZM167.959,187.891c-11.478,0-20.766,10.456-20.766,23.236s9.287,23.236,20.766,23.236,20.87-10.456,20.87-23.236S179.438,187.891,167.959,187.891Z" transform="translate(0 0)" fill="#ecbffa"/>
  <path id="Path_1875" data-name="Path 1875" d="M0,0H212.7V236.363H0Z" fill="none"/>
</svg>
